<?xml version="1.0" standalone="no"?>
<!DOCTYPE svg PUBLIC "-//W3C//DTD SVG 20010904//EN"
 "http://www.w3.org/TR/2001/REC-SVG-20010904/DTD/svg10.dtd">
<svg version="1.0" xmlns="http://www.w3.org/2000/svg"
 width="512.000000pt" height="512.000000pt" viewBox="0 0 512.000000 512.000000"
 preserveAspectRatio="xMidYMid meet">

<g transform="translate(0.000000,512.000000) scale(0.100000,-0.100000)"
fill="#000000" stroke="none">
<path d="M0 2560 l0 -2560 2560 0 2560 0 0 2560 0 2560 -2560 0 -2560 0 0
-2560z m762 2492 c58 -30 150 -137 219 -254 22 -38 46 -68 54 -68 8 0 20 -9
27 -21 7 -11 36 -37 63 -58 40 -30 54 -49 69 -92 10 -30 36 -75 58 -101 l39
-47 28 17 c46 26 117 -2 222 -86 47 -38 104 -81 126 -98 268 -191 359 -262
386 -301 17 -23 34 -43 39 -43 4 0 8 85 8 188 0 205 1 210 60 227 14 4 35 13
46 20 12 8 68 30 125 50 101 36 109 37 282 42 207 7 335 -10 482 -61 120 -42
119 -39 123 -278 3 -147 6 -188 16 -188 19 0 156 -125 184 -168 14 -20 28 -41
32 -45 8 -9 136 22 190 46 19 9 69 26 110 37 41 12 104 32 140 46 76 27 155
47 260 64 41 6 95 16 120 22 25 5 185 12 356 15 l310 5 51 -57 c59 -66 73
-108 73 -222 0 -117 -16 -170 -115 -378 -18 -38 -48 -104 -65 -145 -97 -230
-182 -357 -374 -561 -50 -52 -116 -126 -146 -163 -79 -98 -164 -188 -214 -225
-38 -29 -46 -41 -59 -94 -34 -138 -51 -181 -104 -260 -30 -45 -61 -89 -67 -97
-35 -41 -28 -46 63 -46 47 0 127 -8 176 -17 50 -9 110 -20 134 -24 79 -15 83
-75 5 -81 -21 -2 -43 -10 -47 -18 -5 -8 -48 -33 -95 -55 -48 -22 -111 -53
-141 -67 l-53 -27 33 -3 c41 -4 152 -57 239 -114 57 -38 68 -52 105 -124 22
-44 56 -99 76 -122 51 -60 65 -90 53 -110 -18 -28 -49 -26 -75 5 -23 27 -59
43 -144 62 -22 5 -51 13 -65 17 l-25 8 28 -35 c74 -89 87 -110 156 -257 18
-37 8 -65 -27 -70 -20 -3 -72 51 -72 76 0 5 -9 8 -21 5 -13 -4 -30 3 -47 19
-15 13 -39 29 -53 35 l-27 12 40 -91 c48 -111 78 -196 78 -220 0 -10 -9 -23
-20 -30 -19 -12 -20 -20 -15 -128 7 -122 -2 -161 -38 -168 -24 -5 -47 16 -47
40 0 24 -33 66 -133 170 l-75 78 30 -73 c16 -39 37 -91 48 -113 10 -23 27 -71
36 -107 15 -54 16 -68 5 -81 -31 -37 -65 -14 -85 56 -11 37 -25 52 -100 109
-171 128 -253 159 -431 159 -161 0 -273 -13 -384 -47 -47 -14 -95 -27 -106
-30 -65 -16 -139 -39 -205 -63 -216 -81 -231 -85 -332 -85 -77 1 -100 4 -116
18 -10 9 -28 17 -39 17 -20 0 -150 75 -236 136 -26 19 -49 34 -52 34 -3 0 -27
15 -53 33 -144 102 -393 220 -540 258 -142 36 -346 23 -510 -33 -80 -28 -98
-20 -94 42 3 50 25 95 52 110 11 6 50 33 86 60 58 43 63 50 41 50 -46 0 -181
-20 -244 -37 -51 -13 -65 -13 -78 -3 -21 18 -19 38 10 72 14 16 25 36 25 44 0
25 36 87 78 134 41 46 94 78 169 100 37 11 41 15 32 32 -17 31 -81 66 -154 84
-38 9 -74 20 -80 24 -5 4 -30 11 -55 15 -60 9 -92 30 -88 58 2 12 13 27 26 33
13 6 34 28 48 47 15 22 44 45 80 62 55 26 96 35 277 59 l88 11 -32 48 c-49 74
-118 119 -199 131 -51 8 -86 22 -115 47 -11 10 -31 19 -44 21 -13 1 -29 11
-35 21 -19 30 5 51 88 72 75 18 81 19 180 2 56 -10 133 -29 171 -43 39 -14 81
-29 95 -33 14 -5 65 -27 113 -50 49 -23 91 -41 93 -41 9 0 3 143 -11 230 -8
52 -22 154 -31 225 -8 72 -24 189 -35 260 -12 72 -23 166 -26 210 -5 74 -9 83
-47 133 -23 30 -48 66 -58 81 -18 28 -78 238 -78 272 0 15 -5 19 -17 15 -56
-18 -198 -61 -257 -78 -38 -11 -87 -30 -110 -43 -22 -12 -65 -30 -94 -39 -47
-16 -56 -24 -97 -87 -45 -69 -67 -83 -93 -57 -20 20 -14 44 22 101 33 52 98
117 115 117 5 0 30 31 54 69 55 83 123 133 289 215 l118 58 -15 28 c-8 16 -15
43 -15 60 0 28 -2 30 -37 29 -56 0 -160 -22 -318 -64 -77 -21 -159 -43 -182
-49 -24 -7 -48 -17 -55 -24 -7 -7 -20 -12 -30 -12 -23 0 -182 -114 -202 -145
-18 -27 -45 -32 -64 -13 -22 22 -13 53 25 90 46 45 203 158 220 158 6 0 35 19
65 42 59 48 79 60 193 116 102 50 203 87 281 102 l61 12 -4 47 c-3 25 -9 60
-14 77 -5 17 -18 82 -28 145 -11 63 -32 152 -46 199 -23 72 -27 97 -22 163 7
109 21 120 119 97 24 -5 71 -16 106 -23 l62 -14 -17 26 c-9 14 -45 63 -80 109
-35 46 -78 106 -95 135 -74 127 -179 227 -238 227 -22 0 -40 20 -40 45 0 53
50 55 142 7z"/>
<path d="M885 4452 c-12 -12 -3 -72 21 -147 14 -44 34 -133 45 -198 11 -65 24
-129 29 -143 6 -14 10 -40 10 -57 0 -48 11 -77 27 -77 20 0 15 30 -31 205 -35
127 -37 148 -32 224 11 149 47 178 110 92 21 -28 52 -61 69 -73 18 -12 69 -57
114 -100 72 -69 104 -94 90 -70 -3 4 -28 45 -55 92 -28 47 -67 106 -86 131
-19 25 -40 58 -47 72 -10 22 -17 25 -40 20 -16 -3 -59 2 -96 10 -89 21 -121
25 -128 19z"/>
<path d="M1376 4318 c95 -102 244 -333 244 -379 0 -10 6 -19 13 -19 36 0 149
-141 183 -228 5 -11 34 15 42 37 6 15 39 54 76 86 65 57 65 58 50 84 -8 14
-47 49 -86 76 -131 93 -282 205 -366 271 -83 67 -144 104 -171 104 -10 0 -5
-11 15 -32z"/>
<path d="M1030 4225 c0 -14 17 -87 37 -163 20 -75 39 -158 41 -184 l4 -48 67
0 c58 0 77 -5 146 -40 79 -40 182 -76 191 -67 3 2 -11 33 -30 68 -19 35 -52
99 -72 142 -29 58 -43 77 -58 77 -36 0 -106 42 -139 82 -29 36 -169 158 -182
158 -3 0 -5 -11 -5 -25z"/>
<path d="M1439 4077 c15 -39 104 -216 129 -257 29 -46 28 -30 -1 29 -13 25
-27 59 -31 76 -9 36 -71 149 -92 166 -13 10 -13 8 -5 -14z"/>
<path d="M4375 3830 c-33 -5 -89 -13 -125 -18 -213 -35 -213 -35 -330 -77 -36
-13 -99 -33 -140 -45 -41 -12 -95 -29 -120 -40 -25 -10 -63 -23 -85 -29 -104
-27 -115 -32 -121 -58 -9 -35 5 -44 51 -32 22 6 58 15 80 21 22 6 78 26 125
44 47 17 101 35 120 39 19 4 40 11 45 15 6 4 29 14 52 23 23 9 61 25 85 36 39
18 90 31 298 76 77 17 180 19 264 5 33 -6 114 -19 180 -29 75 -12 124 -25 135
-36 13 -13 16 -36 15 -118 -1 -94 -4 -110 -38 -197 -21 -52 -47 -107 -57 -121
-10 -15 -39 -70 -64 -123 -86 -184 -183 -331 -369 -556 -88 -108 -299 -320
-318 -320 -20 0 -72 58 -91 100 -36 79 -85 209 -91 241 -13 63 -92 227 -156
324 -88 131 -181 305 -204 377 -17 53 -30 76 -47 86 -22 11 -26 10 -44 -15
-11 -16 -51 -60 -90 -98 -64 -64 -80 -74 -161 -102 -131 -46 -351 -77 -544
-77 -142 1 -165 3 -274 32 -157 42 -253 86 -353 158 -76 55 -84 64 -111 129
-17 39 -33 91 -37 117 l-7 47 -63 -45 c-85 -59 -104 -57 -121 11 -16 63 -51
138 -57 121 -3 -8 -2 -18 3 -21 15 -9 12 -41 -6 -55 -21 -18 -178 27 -302 87
l-93 46 -107 -6 c-129 -6 -281 -36 -379 -75 -79 -31 -106 -48 -52 -31 145 43
376 52 535 19 161 -33 218 -51 240 -75 12 -13 29 -25 39 -27 27 -5 42 -34 29
-55 -9 -15 -33 -19 -150 -25 -76 -3 -155 -11 -174 -16 -105 -31 -148 -49 -285
-117 -82 -42 -166 -89 -185 -106 -41 -35 -43 -35 120 15 143 44 177 51 321 72
165 23 309 17 369 -16 34 -19 45 -31 45 -49 0 -34 -27 -48 -63 -35 -18 7 -36
8 -45 3 -28 -16 -56 -73 -62 -129 -9 -70 -31 -149 -62 -225 -29 -69 -28 -110
6 -330 11 -71 27 -188 35 -260 9 -71 23 -173 31 -225 8 -52 15 -141 15 -197
l0 -102 57 -27 c32 -15 66 -34 76 -42 25 -22 27 -13 10 33 -11 32 -15 107 -17
355 -4 353 -5 344 70 467 25 42 55 107 65 145 26 94 41 113 123 158 65 36 77
40 147 40 72 0 76 -1 108 -34 26 -27 38 -55 62 -142 27 -100 29 -121 27 -253
-3 -124 -5 -145 -20 -155 -13 -8 -23 -8 -35 0 -15 9 -19 33 -24 160 -5 117
-12 168 -31 235 -14 48 -29 92 -32 98 -15 24 -99 12 -161 -23 -60 -33 -60 -33
-82 -108 -12 -42 -42 -110 -68 -152 -72 -119 -71 -117 -69 -431 2 -259 3 -285
24 -348 18 -55 25 -67 39 -62 9 4 43 15 75 26 66 23 170 91 258 168 76 68 131
91 222 91 92 0 131 -23 236 -139 75 -84 173 -165 304 -254 98 -66 168 -99 224
-104 26 -2 56 -9 67 -14 13 -6 37 -4 70 4 42 11 50 17 47 35 -2 12 2 31 8 43
22 41 61 185 80 302 11 66 25 128 31 139 12 22 -3 295 -22 403 -18 108 -93
325 -111 325 -5 0 -26 11 -46 25 -20 14 -65 34 -101 46 l-64 22 -81 -27 c-140
-46 -164 -63 -215 -147 -95 -158 -161 -299 -161 -344 0 -59 -45 -96 -78 -63
-17 17 -3 123 25 188 13 30 60 119 104 196 63 111 89 148 122 171 71 50 218
103 283 103 50 0 146 -32 196 -65 21 -14 41 -25 46 -25 17 0 61 -56 79 -100
29 -69 70 -208 82 -275 6 -32 16 -141 22 -242 11 -160 10 -188 -4 -235 -9 -29
-21 -89 -28 -133 -10 -68 -52 -232 -74 -287 -6 -15 -3 -15 37 -3 24 7 54 17
68 23 14 5 45 15 70 22 25 7 70 22 100 33 30 11 91 32 134 47 50 17 83 34 88
46 10 22 22 42 105 163 58 86 72 118 107 254 17 67 38 97 105 152 47 39 182
186 232 255 15 19 60 69 101 110 83 84 199 229 244 305 36 60 71 133 114 235
17 41 47 107 65 145 18 39 45 95 59 127 71 155 74 299 9 385 l-25 33 -237 -1
c-130 -1 -263 -5 -296 -9z m-2287 -1662 c43 -47 57 -199 20 -222 -31 -19 -52
5 -59 65 -15 136 -41 134 -84 -6 -31 -102 -38 -115 -70 -115 -47 0 -50 22 -15
132 40 128 74 168 143 168 32 0 49 -6 65 -22z m516 -69 c32 -25 67 -99 91
-196 15 -59 16 -74 6 -87 -33 -40 -71 -8 -92 79 -19 77 -49 136 -68 133 -11
-2 -18 -20 -24 -63 -10 -70 -18 -89 -41 -93 -37 -8 -49 18 -43 96 8 107 38
142 128 151 9 0 28 -8 43 -20z"/>
<path d="M1705 3715 c29 -83 28 -82 53 -66 11 7 11 9 -2 14 -9 4 -25 21 -37
39 -12 18 -18 24 -14 13z"/>
<path d="M3123 3680 c-23 -22 -54 -42 -70 -45 -15 -3 -78 -21 -138 -40 -107
-34 -117 -35 -265 -35 -135 0 -165 3 -230 24 -68 21 -166 62 -212 87 -19 10
-58 12 -58 4 0 -3 10 -21 22 -39 18 -28 40 -41 113 -69 200 -78 345 -102 465
-78 244 48 332 75 369 115 17 18 58 117 48 116 -1 0 -21 -18 -44 -40z"/>
<path d="M4335 3705 c-33 -8 -103 -23 -155 -35 -52 -12 -114 -30 -138 -41 -24
-11 -62 -27 -85 -36 -23 -9 -46 -19 -52 -23 -5 -4 -26 -11 -45 -15 -19 -4 -73
-21 -120 -39 -114 -44 -153 -56 -175 -56 -17 0 -17 -1 -2 -18 10 -10 17 -25
17 -34 0 -25 9 -26 73 -12 68 16 90 13 157 -20 25 -13 63 -29 85 -36 62 -21
184 -149 228 -240 55 -115 103 -299 111 -423 2 -44 8 -82 11 -85 8 -8 19 5
154 178 110 141 200 284 266 426 25 53 54 108 64 123 40 55 93 213 94 280 l2
64 -100 17 c-270 46 -290 47 -390 25z"/>
<path d="M1040 3588 c0 -19 24 -78 31 -78 14 0 18 17 12 53 -4 27 -11 37 -24
37 -11 0 -19 -5 -19 -12z"/>
<path d="M1170 3562 c0 -18 4 -19 36 -12 41 10 56 20 28 20 -10 0 -29 3 -41 6
-18 5 -23 2 -23 -14z"/>
<path d="M3660 3313 c-14 -3 -29 -8 -34 -13 -9 -9 93 -193 174 -315 64 -97
143 -261 156 -324 6 -32 57 -168 89 -237 l15 -31 62 61 c61 59 63 62 50 89 -8
15 -16 62 -18 105 -8 123 -57 308 -112 422 -41 87 -121 171 -179 191 -20 6
-58 23 -84 35 -45 23 -67 26 -119 17z"/>
<path d="M1286 3213 c8 -26 21 -54 29 -63 13 -13 15 -11 15 11 0 15 11 43 25
63 l24 36 -53 0 -54 0 14 -47z"/>
<path d="M1140 3230 c0 -20 62 -235 75 -260 7 -14 22 -33 33 -43 20 -19 21
-18 41 48 25 80 25 85 7 85 -24 0 -75 71 -91 127 -13 46 -19 53 -40 53 -14 0
-25 -5 -25 -10z"/>
<path d="M917 1856 c77 -45 110 -76 156 -144 62 -93 69 -109 65 -144 -4 -42
-29 -56 -63 -38 -26 14 -59 12 -265 -19 -58 -9 -152 -48 -157 -66 -4 -13 35
-29 117 -50 35 -9 83 -28 107 -42 47 -27 146 -154 141 -180 -5 -25 -35 -40
-55 -27 -13 8 -25 5 -51 -13 -19 -13 -43 -23 -52 -23 -26 0 -96 -42 -118 -71
-11 -13 -27 -39 -37 -58 l-17 -34 29 7 c15 3 89 9 164 13 l137 6 36 -28 c20
-15 36 -36 36 -45 0 -23 -40 -55 -88 -71 -33 -11 -155 -89 -149 -95 1 -1 31 4
67 11 101 22 339 19 432 -4 147 -38 396 -156 540 -258 26 -18 50 -33 53 -33 3
0 26 -15 52 -34 101 -72 217 -136 246 -136 17 0 38 -7 48 -16 44 -40 127 -25
369 66 41 16 86 31 100 35 14 4 48 13 75 20 28 7 89 25 136 39 116 34 223 46
412 46 121 0 170 -4 210 -17 57 -19 147 -64 192 -97 52 -38 56 -40 46 -14 -23
60 -77 155 -98 171 -13 10 -23 25 -23 32 0 8 -13 23 -30 35 -31 22 -38 48 -18
68 19 19 43 14 113 -23 86 -45 131 -82 196 -161 30 -36 69 -77 88 -91 l34 -26
-5 44 c-3 24 -20 80 -38 124 -18 44 -43 108 -55 143 -14 36 -35 72 -49 83 -30
23 -33 45 -11 69 14 16 13 19 -10 34 -28 18 -33 57 -10 76 20 16 113 -4 187
-41 32 -16 60 -29 62 -29 3 0 -7 18 -21 39 -19 30 -40 45 -82 62 -31 12 -64
29 -74 37 -9 8 -27 20 -39 26 -27 13 -35 41 -18 61 18 21 223 21 285 -1 26 -8
50 -14 54 -12 5 2 -2 26 -15 54 -26 56 -77 96 -197 152 -54 26 -80 32 -131 32
-36 0 -67 4 -70 9 -3 5 -23 7 -44 4 -27 -4 -42 -1 -51 10 -30 37 -15 48 229
172 36 18 82 40 102 50 41 18 42 35 3 35 -13 0 -36 5 -52 11 -20 8 -55 7 -128
-2 -91 -11 -162 -30 -315 -86 -30 -11 -75 -26 -100 -33 -25 -7 -61 -18 -80
-26 -65 -25 -282 -84 -310 -84 -16 0 -32 5 -36 11 -4 6 -20 8 -38 5 -101 -19
-396 168 -585 371 -45 48 -99 98 -119 110 -70 43 -174 20 -258 -57 -23 -21
-70 -59 -103 -84 -67 -49 -67 -49 23 -62 30 -4 58 -15 71 -28 12 -12 39 -27
61 -35 67 -23 84 -38 84 -75 0 -39 -35 -95 -70 -113 -72 -37 -270 9 -270 62 0
7 -16 25 -36 40 -31 24 -35 32 -33 66 2 21 1 41 -2 44 -3 3 -23 -2 -45 -11
-50 -21 -194 -16 -221 8 -18 16 -75 43 -268 131 -164 74 -283 118 -355 132
l-35 6 42 -25z m1178 -583 c39 -8 79 -19 90 -23 52 -20 186 -60 202 -60 10 0
29 -7 41 -16 37 -26 26 -68 -66 -264 -46 -98 -67 -167 -82 -266 -10 -65 -16
-76 -59 -123 -48 -52 -83 -65 -109 -39 -21 21 -13 43 32 81 41 34 45 41 55
109 15 96 36 168 74 248 16 36 42 92 57 125 l28 60 -82 27 c-93 31 -106 33
-106 16 0 -7 -16 -33 -35 -57 -54 -68 -69 -132 -70 -300 0 -126 -2 -145 -17
-155 -34 -21 -52 4 -60 85 -5 40 -12 87 -17 104 -5 16 -15 75 -21 130 -6 55
-16 130 -21 167 -12 92 -11 152 3 166 14 14 50 11 163 -15z"/>
<path d="M1880 1582 c0 -27 68 -50 104 -36 28 11 17 22 -26 29 -24 3 -51 9
-60 11 -10 3 -18 1 -18 -4z"/>
</g>
</svg>
