<?xml version="1.0" encoding="UTF-8"?>
<!-- Generator: Adobe Illustrator 25.2.2, SVG Export Plug-In . SVG Version: 6.00 Build 0)  -->
<svg version="1.1" id="Sonic_Vector_Logo" xmlns="http://www.w3.org/2000/svg" xmlns:xlink="http://www.w3.org/1999/xlink" x="0px" y="0px" viewBox="0 0 199.7 226" style="enable-background:new 0 0 199.7 226;" xml:space="preserve">
<style type="text/css">
	.st0{fill:#FFFFFF;}
	.st1{fill-rule:evenodd;clip-rule:evenodd;fill:#003F8F;}
	.st2{fill:#003F8F;}
	.st3{fill-rule:evenodd;clip-rule:evenodd;fill:#C8001A;}
	.st4{fill:#C8001A;}
</style>
<path id="Line" class="st0" d="M133.7,226c-1.6,0-3.2-0.2-4.8-0.6c-0.4-0.1-0.9-0.3-1.3-0.5c-0.7,0.5-1.5,0.8-2.4,0.8h-5.9  c-1,0-2-0.4-2.7-1c-0.8,0.7-1.7,1-2.7,1h-5.3c-0.5,0-1-0.1-1.5-0.3c-0.5,0.2-1,0.3-1.5,0.3H91.2c-1.1,0-2.1-0.4-2.9-1.2  c-0.5-0.5-0.9-1.2-1.1-1.9l-0.1,0.4c-0.6,1.6-2.1,2.7-3.9,2.7h-5.7c-1.7,0-3.3-1.1-3.9-2.7l-0.5-1.4v0c0,1.1-0.4,2.1-1.2,2.9  c-0.8,0.8-1.8,1.2-2.9,1.2h-5.3c-0.6,0-1.3-0.2-1.8-0.4c-0.6,0.3-1.2,0.4-1.8,0.4h-4.9c-1.2,0-2.4-0.5-3.2-1.5  c-0.1,0.1-0.2,0.2-0.3,0.3c-0.8,0.8-1.8,1.2-2.9,1.2H44c-0.6,0-1.2-0.1-1.8-0.4c-0.5,0.3-1.1,0.4-1.8,0.4h-4.9  c-1.2,0-2.4-0.5-3.2-1.5c-0.1,0.1-0.2,0.2-0.3,0.3c-0.8,0.8-1.8,1.2-2.9,1.2h-4.9c-0.3,0-0.6,0-0.9-0.1c-0.3,0.1-0.6,0.1-0.8,0.1  h-5.5c-1.7,0-3.2-1-3.8-2.6c-0.6,1.5-2.1,2.6-3.8,2.6H4.1c-2.3,0-4.1-1.8-4.1-4.1c0-0.5,0.1-1,0.2-1.4l6.4-17.5  c0.6-1.6,2.1-2.7,3.9-2.7h5.7c1.7,0,3.3,1.1,3.9,2.7l0.2,0.5c0.2-0.8,0.6-1.5,1.1-2c0.8-0.8,1.8-1.2,2.9-1.2h1.1  c-7.2-2.7-13.8-7-18.1-11.7c-2.4-2.6-4.6-5.5-6.6-8.4l0,0c-1.2-1.9-0.6-4.4,1.3-5.6c0.2-0.1,0.4-0.2,0.6-0.3l21.5-9v-8.7h-6.9  c-1.1,0-2.1-0.4-2.9-1.2c-0.8-0.8-1.2-1.8-1.2-2.9V123c0-2.3,1.8-4.1,4.1-4.1h32.3c-0.8-0.3-1.6-0.8-2.3-1.3c-0.3,0-0.6,0-0.9,0  c-1.7,0-3.5-0.3-5.1-1c-0.8-0.3-1.6-0.8-2.2-1.3c-0.7,0.1-1.3,0.1-2,0.1h0c-0.4,0-0.7,0-1,0c-2.3-0.2-4.5-0.8-6.5-1.9  c-1,0.5-2.1,0.8-3.3,0.9l-0.2,0h0c-0.1,0-0.1,0-0.3,0c-1.2,0-2.4-0.4-3.5-1c-0.9-0.5-1.8-1.1-2.5-1.7c-1.7-1.3-3.1-3-4.1-4.9  c-1.2-2.4-1.9-5-1.9-7.7c0-1.1,0.1-2.2,0.5-3.3c0.5-1.7,1.3-3.3,2.4-4.7c0.2-0.2,0.4-0.4,0.5-0.6c0-1.1,0.2-2.1,0.6-3.1  c0.6-1.7,1.6-3.2,3-4.4c0.6-0.5,1.2-0.9,1.9-1.2c0-0.8,0.2-1.6,0.5-2.3c0.7-1.5,1.7-2.7,3-3.7c0.9-0.7,1.9-1.2,2.9-1.7l0.1-0.1  c0.4-0.2,0.9-0.4,1.4-0.5c0.6-0.1,1.2-0.2,1.9-0.2c2.7,0.2,5.3,0.9,7.7,2l0.2,0.1c1.6,0.7,3.1,1.7,4.6,2.7c0.4-0.7,1.1-1.3,1.8-1.8  c1.1-0.6,2.3-1,3.6-0.9c0.2,0,0.3,0,0.5,0c-0.9-1.8-1.6-3.7-2.1-5.7c-0.7-2.4-1.1-4.8-1.4-7.3c-0.2-1.5-0.2-3-0.2-4.6  c0-7,1.8-13.8,5.2-19.9c0.3-0.5,0.5-1,0.8-1.4c-0.2-0.6-0.4-1.3-0.7-2c-0.8-2.2-1.4-4.5-1.8-6.9c-0.2-1.1-0.3-2.2-0.3-3.3  c0-0.9,0.1-1.9,0.4-2.7c0.4-1.2,1.2-2.2,2.3-2.9c0.8-0.5,1.7-0.8,2.6-0.9c0.7-0.1,1.5-0.2,2.2-0.2c1.8,0,3.5,0.2,5.3,0.5  c1.2,0.2,2.2,0.4,2.9,0.5c0.3,0,0.5,0.1,0.7,0.1c0.5,0.1,0.9,0.2,1.2,0.3c0.3-0.2,0.6-0.3,0.9-0.5c5.8-3.6,11.9-6.9,18.1-9.7  c7.8-3.7,16.1-6.2,24.6-7.6C116.5,0.5,121.7,0,127,0c4.9,0,9.7,0.5,14.5,1.6c5.9,1.4,11.6,3.6,16.9,6.5l0,0c1.9,1.2,2.6,3.7,1.4,5.6  c-0.4,0.7-1,1.2-1.7,1.6c0,0-2.6,1.3-4.3,2.1l-0.1,0l-0.3,0.2c5.3,2.3,10.4,5.2,14.9,8.8c7.6,6.2,13.6,14.1,17.5,23  c0,0.1,0,0.1,0.1,0.1c0.8,2.1-0.3,4.5-2.4,5.3c-0.7,0.3-1.4,0.3-2.1,0.2c0,0-3.1-0.5-7-1.1c-2.7-0.4-6.5-0.9-9.8-1.2  c0.3,0.2,0.6,0.5,0.8,0.7c5.1,4.6,9.2,10.1,12.2,16.3c0.1,0.1,0.1,0.2,0.1,0.2c0.9,2.1,0,4.5-2,5.4c-0.5,0.2-1.1,0.4-1.7,0.4  c-0.3,0-0.6,0-0.8-0.1c0,0-0.1,0-0.2,0h0c-0.1,0-0.4-0.1-0.6-0.1c-0.6-0.1-1.4-0.2-2.5-0.4c-0.8-0.1-1.6-0.2-2.4-0.3  c0.4,0.2,0.7,0.4,1.1,0.6c1.5,0.9,2.7,2.3,3.4,3.8c0.5,1.1,0.9,2.2,1.1,3.4c0.1,0.7,0.2,1.4,0.2,2.1c0,0.7-0.1,1.4-0.2,2.1  c0.4,1.1,0.6,2.2,0.6,3.4c0,0.9-0.1,1.8-0.3,2.6c-0.3,1.1-0.8,2.1-1.5,3.1c-0.1,1.5-0.6,3-1.3,4.3c-0.6,1-1.4,1.8-2.4,2.5  c-0.2,0.4-0.4,0.8-0.6,1.2c-0.7,1.1-1.7,2.1-2.8,2.8c4.6,0.9,9,2.5,13.2,4.6c3.9,2,7.4,4.5,10.5,7.6c3.2,3.1,5.7,6.8,7.6,10.8  c0,0,0,0.1,0.1,0.1c2.4,5.1,3.6,10.7,3.6,16.4v0c0,4.7-0.8,9.3-2.3,13.7c-1.5,4.5-3.6,8.8-6.2,12.8c1.3,0.7,2.5,1.6,3.6,2.7  c2.5,2.7,3.9,6.3,3.8,10v10.8c0,0,0,0.1,0,0.2l0.7,3l0.2,0.8c0.2,0.7,0.1,1.5-0.1,2.2c0.5,1.2,0.4,2.6-0.4,3.7l-5.9,9.1v6.1  c0,2.3-1.8,4.1-4.1,4.1c0,0,0,0,0,0h-5.2c-1,0-1.9-0.3-2.6-0.9c-0.7,0.6-1.7,0.9-2.6,0.9h-5.9c-1,0-2-0.4-2.7-1  c-0.8,0.7-1.7,1-2.7,1h-5.3c-0.3,0-0.6,0-0.9-0.1c-0.3,0.1-0.6,0.1-0.9,0.1h-5.5c-1.7,0-3.2-1-3.8-2.6c-0.6,1.5-2.1,2.6-3.8,2.5  h-5.3c-0.8,0-1.7-0.3-2.3-0.7C137.5,225.7,135.6,226,133.7,226z M93,191.4c-2.4,2.1-5.1,4-7.9,5.5c-2.4,1.3-4.8,2.4-7.4,3.3  c1.2,0.3,2.2,1.2,2.7,2.4c0.6-1.5,2.1-2.5,3.8-2.5h5.3c0.3,0,0.6,0,0.8,0.1c0.3-0.1,0.6-0.1,0.9-0.1H105l-0.2-0.1h0  c-0.2-0.1-0.5-0.2-0.7-0.3C100,197.5,96.3,194.7,93,191.4z M149.3,148.5c-6.8,0.4-13.2,3.2-18.1,8c-1.7,1.8-2.6,3.5-2.1,4.5  c0.4,0.8,1.8,1.3,3.9,1.3c3.5-0.1,6.9-1,10.1-2.5c2.9-1.3,5.6-3.1,7.9-5.3c1.8-1.8,2.6-3.5,2.1-4.6  C152.8,149,151.4,148.5,149.3,148.5z M83.1,107.6c-1.2,0.8-2.4,1.4-3.7,2c-2.9,1.1-6,1.8-9.1,2c-2,0.2-4.2,0.3-7,0.3  c-0.4,0.6-0.9,1.3-1.4,1.9c-1.3,1.7-2.9,3.1-4.7,4.2c-0.6,0.4-1.2,0.6-1.9,0.9h37.4c2.3,0,4.1,1.8,4.1,4.1c0,0,0,0,0,0v7.2  c2.3-2.6,4.9-5,7.6-7.2c-3.3-1-6.4-2.4-9.3-4.1C90.3,116.1,86.2,112.2,83.1,107.6z"/>
<g id="Group_9" transform="translate(4.106 4.091)">
	<g id="Group_8" transform="translate(0 0)">
		<path id="Union_1" class="st1" d="M109.6,116.1c7.2-0.1,13-6.2,12.8-6.4c2.4-1.4,4.8-2.9,7-4.6c2.2-1.8,4.1-3.9,5.9-6.1    c0,0-5.1,2.1-8.1,3.1s-5.6,2-7.9,0.5c-1.2-0.8-2.5-2.7-3.4-3.9c-1.1-1.4-2.4-3.2-3.1-4c0.9-0.5,2-0.9,3-1.2    c3.5-0.7,7.2-0.8,10.8-0.4c3.2,0.4,6.3,1.1,9.4,2.1c0.5,0.2,0.7,0,0.5-0.4c-0.7-1.4-1.4-2.8-2.3-4.1c-1.9-2.8-4.3-5.2-7-7.2    c1.5-0.3,3-0.5,4.5-0.6c0,0.9,0.2,1.8,0.4,2.7c0.8,2.3,3.2,3.5,5.5,2.7c0.2-0.1,0.5-0.2,0.7-0.3c0,0,1.9,2,3.2,0.1    c0,5.8,0.8,9.8,4.2,12.1c2.4,1.7,6.8-1.9,6.8-1.9s0.1,0,0.1-0.1c0.1,0.3,2.9,2.3,4.7,1.7c3.4-1.2,3-3.8,3-3.8c1.1-0.3,2-1,2.5-1.9    c0.6-1.1,0.9-2.4,0.8-3.7c0.7-0.7,1.3-1.6,1.6-2.6c0.4-1.6,0.2-3.2-0.5-4.6c0.4-1.2,0.4-2.4,0.2-3.7c-0.8-3.8-2.4-4.7-6.3-6.3    s-7.4-2.2-13.7-2c-0.5-1.1-1.4-1.9-2.6-2.2c3.2-1.1,6.5-1.9,9.9-2.3c8.4-1.1,17.6,0.9,17.6,0.9s-4.1-9-11.2-15.1    c-8.8-7.5-13.8-8.2-13.8-8.2s7.2-0.3,13.9,0.2s19.2,2.5,19.2,2.5c-3.6-8.4-9.2-15.7-16.2-21.4c-6.4-5.2-13.9-8.9-21.9-10.9    c0,0,3.8-2.6,6.7-4.3c1-0.6,5.7-2.9,5.7-2.9c-5-2.8-10.3-4.8-15.8-6.1c-8.6-2-17.6-1.9-28.6-0.2c-8.2,1.3-16.1,3.7-23.6,7.3    c-6.7,3.1-13.3,6.7-19.6,10.7c-0.7,0.3-2.2-0.3-2.9-0.4c-1.9-0.3-8.9-1.8-10.9-0.6c-1,0.6-0.9,2.2-0.6,5c0.4,3.1,2.9,10,2.9,10    s-1.2,1.8-1.7,2.7c-3.8,6.7-5.4,14.5-4.5,22.2c0.4,4.2,1.9,9.5,3.4,12.1c1.1,2,2.8,3.6,3.9,3.8s1.5-0.1,1.5-0.1    c0.6-0.3,1.3-3.1,1.3-3.1c0.3,0.6,0.6,1.1,1,1.6c1.1,1.5,3,3.5,3.7,3.1c1.2-0.6,0-3.9-1.4-7c-1-2.1-2.1-4-3.5-5.9    c0,0-1.1-9.2,3.5-14s11.7-5.5,15.3,0.1c3.6,5.6,2.5,13.7,1.9,17c-0.6,2.7-1.4,5.3-2.4,7.9c-1.5,0.2-3,0.6-4.5,1.2    c-2,0.8-6,3-8,2.8c-2-0.2-3.5-1.4-5.5-1c-0.4,0.1-0.8,0.5-0.8,0.9c-1.5-0.1-2.9-0.4-4.4-0.7c-1.7-0.4-3.1-0.8-4.7-1.2    c-1.7-0.4-3.3-0.1-3.5,1.3c-0.1,1.1,1.5,2.4,2.2,2.8c3.3,1.8,7.3,2,10.9,0.6C59,84,63.1,85.2,67,86c3.5,0.6,7.1,0.7,10.6,0.3    c2-0.3,3.9-0.7,5.8-1.2c-0.9,0.6-1.6,1.4-2.1,2.3c-0.6,1-1,2.1-1.3,3.2c0,0-2.3,1.7-3.5,2.4c-1.8,1.2-3.7,2.2-5.8,2.9    c-1.7,0.4-3.5,0.6-5.2,0.5c-2.5,0-5.1-0.1-7.3-0.1c0-3.7-0.7-7.5-3.4-8.2c-1.7-0.3-3.5,0.1-5,1.1c0,0-2.4-3-5-5.8    s-7.8-6.9-10.5-8.1c-2.7-1.1-5.4-2-7.2-1.6c-0.5,0.1-3.6,1.3-4.5,3.5c-0.4,0.9-0.1,1.7,0.1,3.2c-3.4,1.2-4.8,2.3-5.5,4.3    c-0.4,1.1-0.5,2.3-0.2,3.4c-1.6,1.3-2.7,3-3.2,4.9c-0.6,2.1-0.2,5.2,1.2,8c1.2,2.5,4.9,5.5,6.5,5.3c2.9-0.3,2.9-1.9,2.9-1.9    s1.8,1,2.6,1.4c1.5,0.8,3.2,1.3,4.9,1.5c1.4,0.1,2.8-0.1,4.2-0.5c1.4,2.2,4.8,3,8.1,2.4c0.8,0.8,1.8,1.5,2.9,1.9    c4.1,1.1,8.4-4.8,9.6-7.4c5.8,0,12.5-0.2,16.8-2c1.6-0.7,3-1.5,4.4-2.6c0.7-0.5,2.2-1.8,2.2-1.8c0.4,0.9,0.8,1.9,1.3,2.8    c2.8,4.6,6.7,8.4,11.4,11.1C98.3,114.1,102.7,116.2,109.6,116.1z"/>
		<path id="Path_4" class="st2" d="M12.1,214.6H6.2l-0.8,2.9H0L6.4,200h5.7l6.4,17.5H13L12.1,214.6z M11,210.9l-1.9-6.3l-1.9,6.3H11    z"/>
		<path id="Path_5" class="st2" d="M20.1,200H25l6.4,9.7V200h4.9v17.5h-4.9l-6.3-9.6v9.6h-4.9L20.1,200z"/>
		<path id="Path_6" class="st2" d="M39.9,200h4.9l6.4,9.7V200H56v17.5h-4.9l-6.3-9.6v9.6h-4.9L39.9,200z"/>
		<path id="Path_7" class="st2" d="M59.7,200H65v17.5h-5.2V200z"/>
		<path id="Path_8" class="st2" d="M67.1,200h5.5l3.8,12.6l3.8-12.6h5.3l-6.3,17.5h-5.7L67.1,200z"/>
		<path id="Path_9" class="st2" d="M87.1,200h14v3.7h-8.8v2.8h8.1v3.6h-8.1v3.4h9v4H87.1V200z"/>
		<path id="Path_10" class="st2" d="M104.5,217.5V200h8.7c1.3,0,2.5,0.1,3.7,0.4c0.8,0.3,1.6,0.8,2.1,1.6c0.5,0.8,0.8,1.8,0.8,2.8    c0,0.9-0.2,1.7-0.6,2.5c-0.4,0.7-1,1.3-1.7,1.7c-0.6,0.3-1.2,0.6-1.8,0.7c0.9,0.2,1.7,0.8,2.2,1.6c0.3,0.3,0.5,0.7,0.7,1.1    l2.5,5.1h-5.9l-2.8-5.3c-0.2-0.5-0.5-1-0.9-1.3c-0.4-0.3-0.8-0.4-1.3-0.4h-0.5v7.1L104.5,217.5z M109.7,207.1h2.2    c0.5,0,0.9-0.1,1.4-0.2c0.3-0.1,0.6-0.3,0.8-0.5c0.5-0.7,0.4-1.7-0.2-2.3c-0.6-0.4-1.3-0.5-2-0.5h-2.3V207.1z"/>
		<path id="Path_11" class="st2" d="M121.7,211.7l5-0.3c0.1,0.7,0.3,1.3,0.7,1.9c0.6,0.7,1.4,1.1,2.3,1.1c0.6,0,1.2-0.2,1.7-0.5    c0.4-0.3,0.6-0.8,0.6-1.3c0-0.5-0.2-0.9-0.6-1.2c-0.8-0.5-1.7-0.9-2.7-1c-1.8-0.3-3.5-1-4.9-2.1c-1-0.8-1.5-2.1-1.5-3.4    c0-0.9,0.3-1.8,0.8-2.5c0.6-0.8,1.3-1.5,2.3-1.9c1.3-0.5,2.7-0.7,4.2-0.7c1.7-0.1,3.5,0.3,5,1.2c1.2,1,1.9,2.4,2,4l-4.9,0.3    c-0.1-0.7-0.4-1.3-0.8-1.7c-0.5-0.4-1.1-0.6-1.7-0.5c-0.5,0-1,0.1-1.4,0.4c-0.3,0.2-0.5,0.6-0.5,1c0,0.3,0.1,0.6,0.4,0.8    c0.5,0.3,1.1,0.6,1.8,0.6c1.7,0.3,3.3,0.8,4.9,1.5c0.9,0.4,1.6,1.1,2.2,1.9c0.5,0.8,0.7,1.7,0.7,2.6c0,2.3-1.3,4.3-3.4,5.2    c-1.3,0.5-2.7,0.8-4.1,0.7c-2.9,0-4.9-0.6-6-1.7C122.5,214.9,121.8,213.4,121.7,211.7z"/>
		<path id="Path_12" class="st2" d="M149.7,214.6h-5.9l-0.8,2.9h-5.3l6.4-17.5h5.7l6.4,17.5h-5.5L149.7,214.6z M148.6,210.9    l-1.9-6.3l-1.8,6.3H148.6z"/>
		<path id="Path_13" class="st2" d="M157.8,217.5V200h8.7c1.3,0,2.5,0.1,3.7,0.4c0.9,0.3,1.6,0.8,2.1,1.6c0.5,0.8,0.8,1.8,0.8,2.8    c0,0.9-0.2,1.7-0.6,2.5c-0.4,0.7-1,1.3-1.7,1.7c-0.6,0.3-1.2,0.6-1.8,0.7c0.5,0.1,0.9,0.4,1.4,0.6c0.3,0.3,0.6,0.6,0.8,0.9    c0.3,0.3,0.5,0.7,0.7,1.1l2.5,5.1h-5.9l-2.8-5.3c-0.2-0.5-0.5-1-0.9-1.3c-0.4-0.3-0.8-0.4-1.3-0.4h-0.5v7.1L157.8,217.5z     M162.9,207.1h2.2c0.5,0,0.9-0.1,1.4-0.2c0.3-0.1,0.6-0.3,0.8-0.5c0.5-0.7,0.4-1.7-0.2-2.3c-0.6-0.4-1.3-0.5-2-0.5h-2.3    L162.9,207.1z"/>
		<path id="Path_14" class="st2" d="M173.1,200h5.8l3.4,5.9l3.4-5.9h5.8l-6.6,10.2v7.3h-5.2v-7.3L173.1,200z"/>
		<g id="Group_7" transform="translate(0.091 105.588)">
			<g id="Group_4">
				<path id="Path_15" class="st2" d="M188.1,22L188.1,22c-3.5-7.2-9.2-13-16.4-16.6C164.4,1.7,156.2-0.1,148,0      c-10.2,0.1-20.3,2.4-29.5,6.8c-13.1,6.1-23.6,15.4-29.9,26.2V13.3H13.1v29.2h11V58L0,68c1.8,2.8,3.9,5.4,6.1,7.9      c3.8,4.2,10.4,8.5,17.5,11c7.7,2.6,15.8,3.9,23.9,3.8c12,0,22.9-2.6,31.4-7.1c3.8-2,7.3-4.7,10.1-7.9c3.4,4.4,7.7,8,12.7,10.6      c7.4,3.7,15.5,5.5,23.7,5.4c10.2-0.1,20.3-2.4,29.5-6.8c10.2-4.7,19.2-11.7,26.1-20.6c6.3-8.4,10.1-17.9,10.1-27.6      C191.4,31.6,190.3,26.6,188.1,22z M129.1,56.6L129.1,56.6c-2.1,0.1-4.2-0.3-6.1-1.2c-1-0.4-1.9-1.2-2.4-2.1      c-0.2-0.5-0.3-1.1-0.3-1.6v0c0,0,0,0,0-0.1c0.3-2.4,1.3-4.7,2.9-6.5c2.6-3.1,5.9-5.6,9.7-7.3c3.6-1.7,7.4-2.6,11.4-2.7h0.1      c2.1-0.1,4.1,0.4,6,1.2c1,0.4,1.9,1.2,2.4,2.2c0.2,0.5,0.3,1.1,0.3,1.6v0c0,1.4-0.8,4-2.9,6.6c-2.5,3-5.7,5.4-9.3,7.1l-0.4,0.2      C137,55.6,133.1,56.5,129.1,56.6L129.1,56.6L129.1,56.6z M157.3,40L157.3,40z"/>
				<g id="Group_3" transform="translate(6.177 4.062)">
					<path id="Path_16" class="st0" d="M178.2,19.6c-3.1-6.4-8.2-11.6-14.5-14.7c-6.8-3.4-14.3-5-21.9-4.9       c-9.6,0.1-19.1,2.3-27.8,6.4c-19.1,8.9-32,24.9-33.7,41.1c-1.4-1.8-3-3.4-4.9-4.7c-2.9-2.1-6-3.8-9.3-5.1l12.1-4.4v-20H11v21       h14l-3.3,1.3v19.9h3.4l-0.1-0.1L0,65.6c1.2,1.6,2.5,3.1,3.9,4.5c4.3,4,9.4,7,15,8.9c7.3,2.4,14.9,3.7,22.5,3.6       c11.4,0,21.7-2.5,29.5-6.6c3.7-1.9,6.9-4.5,9.5-7.7c1.1-1.4,2-2.9,2.6-4.5l0,0.1c3.1,6.4,8.2,11.6,14.5,14.7       c6.8,3.4,14.3,5,21.9,4.9c9.6-0.1,19.1-2.3,27.8-6.4c20.5-9.6,33.8-27.2,33.9-44.6C181.1,28.1,180.1,23.7,178.2,19.6z        M151.1,35.9c0,2.7-1.3,6-3.9,9.2c-3,3.6-6.8,6.5-11.1,8.4l0,0c-4.1,2-8.6,3-13.1,3.1c-2.7,0.1-5.4-0.5-7.9-1.6       c-1.9-0.8-3.4-2.3-4.3-4.1c-0.5-1.1-0.7-2.2-0.7-3.4c0-2.7,1.3-6,3.9-9.2c3-3.6,6.8-6.5,11.1-8.4c4.1-2,8.6-3,13.1-3.1h0       c2.7-0.1,5.4,0.5,7.9,1.6c1.9,0.8,3.4,2.3,4.3,4.1C150.9,33.6,151.1,34.8,151.1,35.9z M52.5,57.9c0,0.6-1.8,1.2-3,1.4       c-2.7,0.6-5.4,0.9-8.2,0.9c-3,0-5.9-0.4-8.8-1.3c-1-0.3-2-0.8-2.9-1.4c-0.8-0.6-1.5-1.3-2.1-2.1h13.7c5.4,0,8.2,0.7,9.2,1.1       C51.4,56.9,52.5,57.3,52.5,57.9L52.5,57.9z"/>
					<g id="Group_2" transform="translate(5.52 3.277)">
						<path id="Path_17" class="st3" d="M49,34.4h0.6l19.6-7V13.3H8.8v14.1h30.4l-19.6,7l0.2,14.1h15.8c9.9,0,15.1,2.6,15.1,5.8        s-6.7,5.8-15.1,5.8c-7.6,0-13.7-2.3-15.6-4.7C16.4,57,5.6,61,0,63.4c2.8,2.8,6,5.1,9.5,6.9c6.9,3.3,16.1,5.4,26.1,5.4        c21.7,0,39.3-9.5,39.3-21.2C75,45.2,64.1,37.4,49,34.4z"/>
						<g id="Group_1" transform="translate(77.902)">
							<path id="Path_18" class="st4" d="M91.5,17.6c-8.3-17.8-35-23-59.6-11.6S-5.8,41.1,2.5,58.9s35,23,59.6,11.6         S99.8,35.4,91.5,17.6z M54,53.2c-12.7,5.9-26.1,4-29.9-4.3S27.3,29.2,40,23.4s26.1-4,29.9,4.3S66.6,47.3,54,53.2L54,53.2z"/>
							<path id="Path_19" class="st0" d="M10.7,31.5c-0.7-0.4-0.9-1.4-0.4-2.1c0,0,0,0,0,0l0,0c2.7-3.9,5.8-7.5,9.2-10.8l0,0         c4.1-3.8,8.8-7,13.8-9.4l0,0c0.8-0.3,1.6,0,2,0.8l0,0c0.3,0.8,0,1.6-0.8,2c0,0,0,0,0,0l0,0c0,0-0.4,0.2-1.1,0.5l0,0         c-0.7,0.4-1.8,0.9-3,1.7l0,0c-3.2,1.9-6.1,4.1-8.8,6.6l0,0c-3,2.9-5.8,6-8.2,9.4l0,0c-0.4,0.6-0.6,0.9-0.6,0.9l0,0         c-0.3,0.4-0.7,0.6-1.1,0.7l0,0C11.3,31.8,11,31.7,10.7,31.5L10.7,31.5z"/>
							<path id="Path_20" class="st0" d="M19.3,31.7c-0.7-0.4-1-1.3-0.6-2c0,0,0,0,0,0l0,0c1.5-2.4,3.2-4.5,5.2-6.5l0,0         c2.5-2.6,5.4-4.8,8.5-6.6l0,0c0.7-0.4,1.6-0.1,2,0.6l0,0c0.4,0.7,0.1,1.6-0.6,2c0,0,0,0,0,0l0,0c0,0-0.2,0.1-0.7,0.4l0,0         c-0.5,0.3-1.1,0.7-1.9,1.2l0,0c-1.9,1.3-3.6,2.8-5.2,4.4l0,0c-1.7,1.7-3.1,3.6-4.5,5.5l0,0c-0.2,0.3-0.3,0.4-0.3,0.4l0,0         c-0.2,0.4-0.7,0.7-1.2,0.7l0,0C19.9,31.9,19.6,31.8,19.3,31.7L19.3,31.7z"/>
						</g>
					</g>
				</g>
			</g>
			<g id="Group_6" transform="translate(147.766 58.364)">
				<path id="Path_21" class="st2" d="M43.6,33.3l-0.2-0.8l-0.7-3c-0.1-0.3-0.1-0.6-0.2-0.9v-11c0.1-2.7-0.9-5.3-2.7-7.2      c-1.9-2-4.5-3.1-7.3-3c-0.6,0-1.2,0-1.8,0.1V4.7c0-0.3,0.1-0.6,0.2-0.9L31.9,0H16.4l0.4,1.7H1.4l1.1,3.9      c0.1,0.3,0.1,0.6,0.2,0.8v1.2H0V21l2.7-0.6v3.4c0,4.2,1.9,6.6,4.2,7.9c2,1,4.2,1.5,6.4,1.5c1.1,0,2.2-0.1,3.2-0.3l-0.1,0.3      L43.6,33.3z M16.9,1.8l0.4,1.9c0.1,0.3,0.1,0.7,0.2,1v2.9h-1.7V6.4c0-0.3,0.1-0.6,0.1-0.9L16.9,1.8z"/>
				<g id="Group_5" transform="translate(3.149 3.047)">
					<path id="Path_22" class="st0" d="M13.9,26.7c-1.2,0.3-2.5,0.5-3.8,0.5c-5,0-7.5-2.1-7.5-6.4V14H1.7c-0.6,0-1.2,0.1-1.7,0.2       V7.7h2.7V3.4c0-0.6-0.1-1.1-0.3-1.7h7.4C9.7,2.3,9.6,2.8,9.6,3.3v4.3h4.2v6.6c-0.5-0.2-1.1-0.3-1.6-0.3H9.6v5       c0,0.7,0.4,1,1.2,1c1.1,0,2.2-0.3,3.1-0.8V26.7z"/>
					<path id="Path_23" class="st0" d="M36.6,27.2H29c0.1-0.5,0.2-1.1,0.2-1.7V16c0.1-0.7-0.1-1.3-0.4-1.9c-0.3-0.3-0.8-0.5-1.3-0.5       c-1,0-2,0.7-3.1,2v9.9c0,0.6,0.1,1.1,0.3,1.7h-7.6c0.1-0.5,0.2-1.1,0.2-1.7V1.7c0-0.6-0.1-1.1-0.2-1.7h7.6       c-0.2,0.5-0.3,1.1-0.3,1.7v7.2c1.4-1,3.2-1.6,4.9-1.6c1.9-0.1,3.7,0.7,5,2.1c1.3,1.4,2,3.3,1.9,5.2v11       C36.3,26.1,36.4,26.7,36.6,27.2z"/>
				</g>
			</g>
		</g>
	</g>
</g>
</svg>