<?xml version="1.0" standalone="no"?>
<!DOCTYPE svg PUBLIC "-//W3C//DTD SVG 20010904//EN"
 "http://www.w3.org/TR/2001/REC-SVG-20010904/DTD/svg10.dtd">
<svg version="1.0" xmlns="http://www.w3.org/2000/svg"
 width="960.000000pt" height="522.000000pt" viewBox="0 0 960.000000 522.000000"
 preserveAspectRatio="xMidYMid meet">

<g transform="translate(0.000000,522.000000) scale(0.100000,-0.100000)"
fill="#000000" stroke="none">
<path d="M4660 5143 c-473 -33 -885 -190 -1259 -481 -105 -81 -300 -276 -361
-361 -51 -70 -34 -67 -204 -31 -242 51 -525 66 -712 35 -356 -58 -583 -243
-660 -539 -52 -199 -27 -462 62 -655 l34 -74 -25 -96 c-13 -53 -36 -139 -51
-191 -47 -165 -35 -327 28 -397 47 -51 226 -94 456 -108 61 -4 112 -11 112
-15 0 -3 -11 -17 -25 -30 -14 -14 -38 -44 -53 -67 -29 -45 -68 -62 -112 -48
-13 4 -20 3 -17 -2 3 -5 -43 -22 -104 -38 -163 -41 -245 -99 -251 -176 -3 -33
55 -319 65 -319 4 0 7 6 7 14 0 21 47 74 81 91 28 15 203 65 225 65 7 0 15
-21 19 -47 18 -124 90 -277 173 -366 25 -26 43 -50 40 -53 -3 -3 -57 -17 -119
-31 -158 -35 -217 -59 -261 -104 -63 -66 -64 -87 -19 -302 21 -103 45 -194 51
-202 7 -9 11 -17 9 -19 -2 -2 -112 -34 -244 -71 -132 -37 -244 -71 -248 -75
-5 -4 -19 -70 -32 -146 -14 -77 -29 -161 -34 -187 -8 -43 -7 -48 8 -44 9 3 95
31 191 62 315 102 476 146 673 180 43 8 93 24 112 35 61 38 61 51 10 301 -25
123 -47 231 -49 240 -4 20 40 30 259 58 206 27 381 40 710 55 l280 12 120 -79
c212 -141 485 -261 725 -319 165 -39 247 -49 475 -54 185 -5 254 -3 350 11
370 51 712 184 1002 390 63 44 84 54 108 50 16 -2 113 -7 215 -10 348 -11 762
-49 952 -86 51 -10 57 -14 53 -33 -3 -11 -25 -118 -50 -238 -35 -170 -42 -222
-35 -245 16 -44 67 -72 166 -89 181 -31 336 -73 693 -188 96 -30 176 -55 177
-53 5 6 -65 370 -72 376 -13 10 -55 23 -284 86 -113 32 -207 59 -209 61 -2 2
2 10 9 19 6 8 30 99 51 202 33 160 37 193 28 223 -29 89 -91 131 -254 171 -49
12 -92 23 -94 25 -2 2 8 17 22 34 35 41 82 142 97 209 8 35 11 90 7 153 -5 89
-3 98 11 94 10 -3 55 -14 100 -26 46 -11 101 -28 123 -36 41 -17 99 -75 99
-99 0 -8 5 -15 10 -15 6 0 10 9 10 21 0 11 11 71 25 132 14 62 26 128 27 148
1 91 -75 151 -249 194 -62 16 -113 32 -113 36 0 5 -7 6 -15 3 -8 -4 -31 -3
-50 0 -29 6 -34 10 -26 24 5 9 14 50 21 90 6 39 16 72 20 72 5 0 82 11 171 25
223 35 255 55 293 184 31 105 21 157 -98 546 -30 99 -63 203 -72 231 l-17 51
56 194 c31 107 70 236 87 288 76 235 86 331 41 404 -35 57 -79 74 -266 99
-141 18 -217 22 -440 22 -267 0 -271 0 -360 -27 -49 -15 -119 -41 -154 -58
-35 -16 -65 -28 -65 -27 -1 2 -8 16 -16 32 -8 16 -35 42 -59 58 -40 25 -54 28
-130 28 -48 0 -90 4 -96 8 -5 4 -49 50 -97 103 -169 186 -402 361 -635 478
-351 175 -772 261 -1153 234z m468 -237 c347 -52 741 -227 1007 -448 64 -53
145 -127 145 -131 0 -3 29 -3 -1043 -5 -1055 -2 -987 2 -1047 -64 l-28 -30
-93 35 c-141 53 -271 71 -448 64 -141 -6 -235 -21 -314 -52 -20 -8 -42 -15
-47 -15 -15 0 182 182 261 241 150 111 311 204 469 269 188 77 385 127 595
150 110 12 418 4 543 -14z m-1333 -696 c151 -17 310 -74 423 -152 l42 -29 0
66 c0 57 3 69 25 90 l24 25 418 0 c363 0 422 -2 441 -16 20 -14 24 -14 44 0
20 14 108 16 749 16 861 0 779 14 779 -131 0 -49 3 -89 6 -89 3 0 24 15 47 34
100 82 248 144 412 173 112 19 349 13 600 -17 94 -11 176 -20 183 -20 7 0 24
-11 38 -25 28 -28 28 -29 -18 -175 -68 -215 -112 -366 -152 -520 l-32 -125 34
-105 c40 -124 90 -290 125 -415 73 -256 74 -252 -58 -277 -338 -62 -420 -73
-585 -73 -142 0 -177 3 -250 23 -100 28 -225 85 -295 136 l-50 36 -5 -83 c-3
-50 -11 -91 -19 -101 -12 -15 -112 -16 -1222 -16 l-1208 0 -16 22 c-10 16 -15
46 -15 101 l0 78 -57 -39 c-190 -128 -413 -184 -650 -161 -185 17 -359 88
-505 206 l-76 61 -77 -74 c-59 -57 -97 -84 -168 -119 -146 -71 -197 -80 -447
-79 -118 1 -260 6 -315 13 -158 18 -359 53 -374 64 -33 27 -30 52 40 331 l68
278 -28 37 c-80 101 -114 216 -115 386 -1 138 12 200 61 301 60 126 173 230
309 287 125 52 241 71 449 70 197 -1 319 -16 560 -73 104 -25 134 -38 149 -65
6 -11 12 -22 13 -24 2 -2 20 8 41 21 184 122 418 175 657 148z m-1152 -1915
c183 -38 333 -185 382 -372 54 -207 -48 -443 -239 -552 -30 -18 -94 -42 -142
-53 -78 -20 -95 -21 -176 -10 -363 45 -555 414 -388 742 29 57 131 158 195
194 107 60 241 78 368 51z m2462 -16 c59 -21 153 -77 174 -102 8 -10 -13 -36
-84 -107 l-94 -94 -23 21 c-53 48 -97 54 -164 24 -169 -77 -226 -330 -96 -429
31 -24 46 -27 124 -30 l88 -4 0 49 c0 60 -12 73 -67 73 l-43 0 0 100 0 100
195 0 195 0 0 -255 0 -255 -27 -11 c-109 -41 -302 -58 -437 -39 -170 24 -315
122 -377 254 -39 84 -56 218 -39 318 31 183 186 353 360 396 25 6 54 14 65 16
46 11 192 -3 250 -25z m2250 11 c50 -6 113 -15 142 -21 l52 -10 -23 -52 c-52
-117 -94 -192 -106 -189 -7 1 -69 5 -139 9 -146 7 -171 0 -171 -47 0 -40 18
-47 138 -58 128 -12 196 -42 252 -114 129 -162 71 -394 -116 -469 -55 -22 -72
-24 -249 -23 -163 1 -375 20 -390 36 -2 2 24 61 58 131 58 121 62 127 86 122
15 -3 84 -11 155 -19 145 -16 182 -10 192 31 12 46 -19 62 -133 72 -159 14
-241 63 -295 176 -68 144 -16 314 120 388 82 44 237 58 427 37z m-3620 -29
c79 -28 129 -71 164 -143 27 -53 31 -72 31 -139 0 -53 -6 -95 -20 -131 -19
-51 -85 -134 -124 -155 -17 -9 -8 -25 91 -174 60 -90 113 -170 117 -176 6 -10
-28 -13 -157 -13 l-165 0 -83 143 c-45 78 -89 150 -97 160 -11 12 -30 17 -69
17 l-53 0 0 -160 0 -160 -145 0 -145 0 0 470 0 469 58 4 c31 2 166 4 300 5
217 2 248 0 297 -17z m635 -456 l0 -475 -165 0 -165 0 0 475 0 475 165 0 165
0 0 -475z m1353 3 l-3 -473 -163 -3 -163 -2 -1 475 -2 475 168 0 167 0 -3
-472z m556 239 l126 -228 3 231 2 230 145 0 145 0 0 -475 0 -475 -187 0 -188
0 -115 220 c-63 121 -117 220 -120 220 -3 0 -4 -99 -2 -220 l3 -220 -145 0
-146 0 -1 413 c-1 358 -1 525 1 535 0 1 79 1 176 0 l176 -3 127 -228z m-569
-1016 l85 -6 -95 -48 c-169 -86 -361 -146 -585 -183 -165 -28 -487 -25 -655 5
-231 41 -382 89 -560 177 l-105 53 95 2 c52 1 185 5 295 9 218 9 1388 2 1525
-9z"/>
<path d="M4476 4768 c6 -77 6 -78 -18 -78 -13 0 -48 6 -78 14 -30 8 -56 13
-57 12 -2 -1 15 -16 37 -32 40 -29 41 -30 38 -87 -2 -31 -1 -57 2 -57 3 0 22
11 42 25 44 30 51 30 106 5 23 -10 42 -18 42 -17 0 1 -7 26 -14 55 l-15 54 41
44 41 44 -60 0 c-52 0 -61 3 -72 23 -41 77 -41 77 -35 -5z"/>
<path d="M5127 4771 c-3 -40 -9 -76 -12 -79 -3 -3 -34 7 -70 21 -36 15 -68 27
-72 27 -4 0 10 -17 31 -39 l38 -38 -16 -54 c-9 -29 -16 -54 -16 -55 0 -2 19 6
43 16 54 25 61 25 105 -5 20 -14 39 -25 42 -25 3 0 3 24 2 53 -4 53 -3 55 38
90 l42 36 -43 11 c-68 17 -69 18 -79 47 -25 69 -27 68 -33 -6z"/>
<path d="M3840 4635 c7 -8 9 -15 6 -15 -4 0 2 -13 13 -29 12 -16 22 -39 23
-52 3 -20 -4 -24 -72 -39 l-75 -16 49 -14 c41 -11 51 -19 63 -49 7 -20 17 -44
21 -54 6 -16 12 -12 40 26 32 45 32 45 87 42 l55 -2 -34 46 -35 47 16 47 c9
26 13 50 11 52 -3 3 -21 -2 -41 -10 -49 -20 -61 -19 -95 10 -33 28 -51 33 -32
10z"/>
<path d="M5746 4583 l-39 -66 -53 55 c-30 31 -54 54 -54 52 0 -3 5 -25 11 -49
11 -42 10 -46 -20 -84 -17 -21 -31 -42 -31 -45 0 -3 22 -6 50 -6 47 0 50 -2
81 -46 l31 -46 22 52 c20 50 24 54 68 65 26 6 50 10 53 7 3 -3 5 -1 5 4 -1 5
-21 24 -46 42 l-46 34 7 49 c4 27 5 49 3 49 -1 0 -20 -30 -42 -67z"/>
<path d="M3555 4144 c-64 -7 -195 -44 -262 -74 -91 -42 -206 -124 -272 -196
l-58 -63 28 97 c16 53 29 104 29 113 0 39 -430 119 -643 119 -270 0 -474 -63
-598 -185 -100 -98 -147 -210 -156 -371 -9 -163 28 -297 108 -388 21 -24 39
-50 39 -58 0 -7 -9 -49 -21 -93 -11 -44 -29 -116 -39 -160 -10 -44 -30 -125
-44 -180 -13 -55 -26 -109 -28 -120 -3 -21 -3 -21 127 -39 28 -4 68 -11 90
-16 78 -17 387 -33 523 -27 151 5 251 30 348 86 70 41 156 121 195 184 18 28
34 54 36 56 2 2 28 -24 59 -58 103 -114 249 -199 414 -242 66 -18 114 -23 215
-23 152 -1 245 17 375 73 103 44 165 85 248 165 l62 59 0 -151 0 -152 360 0
360 0 0 93 1 92 44 -92 44 -93 765 0 766 0 0 157 0 157 63 -66 c100 -102 184
-153 337 -204 80 -27 95 -28 265 -29 163 0 201 4 405 38 123 21 226 39 227 41
7 6 -152 540 -197 662 l-19 52 39 148 c41 159 78 286 156 537 21 66 25 90 16
96 -30 19 -365 46 -557 45 -174 0 -210 -3 -280 -22 -155 -43 -301 -133 -403
-249 l-52 -58 0 168 0 167 -710 0 -709 0 -3 -112 -3 -113 -39 74 c-21 41 -49
92 -62 113 l-24 38 -395 0 -395 0 0 -137 0 -136 -57 55 c-109 103 -210 157
-363 197 -84 22 -264 34 -355 25z m380 -184 c112 -35 184 -78 261 -157 130
-132 187 -277 186 -478 -2 -313 -162 -539 -457 -642 -75 -26 -90 -28 -245 -27
-159 0 -168 1 -252 31 -158 56 -304 177 -367 301 -97 192 -96 444 1 637 93
185 271 315 488 356 84 15 307 3 385 -21z m3746 20 c133 -13 130 -11 112 -68
-30 -98 -75 -250 -95 -322 -12 -41 -22 -76 -23 -78 -2 -2 -23 12 -48 31 -74
56 -150 59 -255 10 -69 -32 -170 -127 -206 -193 -75 -139 -29 -247 123 -286
128 -32 222 4 324 126 15 18 29 31 30 29 5 -6 84 -260 124 -393 19 -65 31
-121 26 -125 -4 -4 -73 -18 -153 -32 -207 -34 -393 -33 -505 4 -286 94 -449
319 -449 617 0 127 18 204 75 317 100 199 299 335 533 362 99 12 274 12 387 1z
m-4950 -29 c63 -13 121 -26 127 -30 9 -5 5 -33 -17 -107 -16 -54 -34 -121 -41
-147 l-13 -48 -91 8 c-115 10 -322 10 -358 0 -38 -10 -61 -48 -53 -87 6 -26
14 -32 58 -44 29 -8 104 -22 168 -31 137 -18 203 -36 250 -68 48 -32 106 -120
118 -178 16 -72 13 -207 -4 -266 -34 -116 -142 -228 -261 -273 -91 -34 -230
-43 -437 -31 -100 6 -219 17 -265 23 -81 12 -83 13 -77 38 3 14 23 86 43 160
l38 135 69 -5 c129 -9 329 -5 366 8 69 24 78 96 15 126 -19 9 -47 16 -63 16
-58 0 -239 31 -302 52 -76 25 -145 82 -172 144 -30 66 -43 182 -31 264 28 191
143 304 357 350 126 28 409 23 576 -9z m2339 20 c0 -5 20 -44 43 -87 24 -44
65 -119 91 -169 27 -49 85 -157 129 -240 l82 -150 3 328 2 327 210 0 210 0 0
-663 c0 -365 -2 -666 -4 -668 -2 -2 -135 -3 -294 -1 l-289 3 -159 325 c-87
179 -161 327 -164 329 -3 2 -4 -145 -2 -326 l3 -329 -215 0 -216 0 0 665 0
665 285 0 c157 0 285 -4 285 -9z m1480 -656 l0 -665 -245 2 c-135 2 -245 6
-245 11 0 4 0 302 0 662 l0 655 245 0 245 0 0 -665z"/>
<path d="M3703 3580 c-51 -12 -124 -60 -186 -122 -116 -116 -149 -251 -80
-335 99 -123 289 -109 427 32 128 131 142 271 38 378 -51 52 -115 67 -199 47z"/>
<path d="M2526 2026 c-52 -20 -119 -88 -153 -155 -39 -81 -40 -180 -1 -239 57
-85 151 -80 243 12 166 166 100 451 -89 382z"/>
<path d="M3370 1960 l0 -80 106 0 c58 0 114 5 125 10 27 15 51 67 43 93 -16
52 -29 57 -156 57 l-118 0 0 -80z"/>
<path d="M75 4729 c-4 -6 -5 -12 -2 -15 2 -3 7 2 10 11 7 17 1 20 -8 4z"/>
<path d="M180 4501 c0 -6 4 -13 10 -16 6 -3 7 1 4 9 -7 18 -14 21 -14 7z"/>
<path d="M346 4308 c10 -14 21 -24 23 -22 3 3 -6 15 -18 27 l-24 22 19 -27z"/>
<path d="M8200 4210 c0 -5 9 -10 20 -10 18 0 20 -7 20 -60 0 -77 18 -79 22 -2
3 51 6 57 26 60 12 2 20 8 17 13 -8 12 -105 12 -105 -1z"/>
<path d="M8320 4156 c0 -36 5 -68 10 -71 6 -4 10 12 10 40 0 50 14 53 25 6 3
-16 12 -35 20 -41 11 -9 17 0 34 42 l20 53 0 -52 c1 -29 6 -53 11 -53 6 0 10
30 10 71 0 60 -2 70 -17 67 -9 -2 -23 -24 -33 -53 -15 -41 -19 -47 -25 -30
-27 70 -36 85 -49 85 -13 0 -16 -13 -16 -64z"/>
<path d="M510 4116 c0 -2 8 -10 18 -17 15 -13 16 -12 3 4 -13 16 -21 21 -21
13z"/>
<path d="M9079 4073 c-13 -16 -12 -17 4 -4 16 13 21 21 13 21 -2 0 -10 -8 -17
-17z"/>
<path d="M9029 4063 c-13 -16 -12 -17 4 -4 9 7 17 15 17 17 0 8 -8 3 -21 -13z"/>
<path d="M9039 4033 c-13 -16 -12 -17 4 -4 16 13 21 21 13 21 -2 0 -10 -8 -17
-17z"/>
<path d="M590 4036 c0 -2 8 -10 18 -17 15 -13 16 -12 3 4 -13 16 -21 21 -21
13z"/>
<path d="M8979 3973 c-13 -16 -12 -17 4 -4 16 13 21 21 13 21 -2 0 -10 -8 -17
-17z"/>
<path d="M675 3920 c10 -11 20 -20 23 -20 3 0 -3 9 -13 20 -10 11 -20 20 -23
20 -3 0 3 -9 13 -20z"/>
<path d="M8904 3908 l-19 -23 23 19 c21 18 27 26 19 26 -2 0 -12 -10 -23 -22z"/>
<path d="M757 3849 c12 -12 25 -20 28 -17 3 3 -7 13 -22 23 l-28 17 22 -23z"/>
<path d="M8830 3850 c-8 -5 -12 -12 -9 -15 4 -3 12 1 19 10 14 17 11 19 -10 5z"/>
<path d="M980 3696 c0 -3 9 -10 20 -16 11 -6 20 -8 20 -6 0 3 -9 10 -20 16
-11 6 -20 8 -20 6z"/>
<path d="M8485 3640 c-3 -6 1 -7 9 -4 18 7 21 14 7 14 -6 0 -13 -4 -16 -10z"/>
<path d="M586 3607 c3 -10 9 -15 12 -12 3 3 0 11 -7 18 -10 9 -11 8 -5 -6z"/>
<path d="M1157 3609 c7 -7 15 -10 18 -7 3 3 -2 9 -12 12 -14 6 -15 5 -6 -5z"/>
<path d="M8415 3605 c-16 -8 -23 -14 -14 -15 8 0 24 7 35 15 23 18 18 18 -21
0z"/>
<path d="M8895 3434 c-9 -15 -12 -23 -6 -20 11 7 35 46 28 46 -3 0 -12 -12
-22 -26z"/>
<path d="M770 3326 c0 -2 8 -10 18 -17 15 -13 16 -12 3 4 -13 16 -21 21 -21
13z"/>
<path d="M8759 3293 c-13 -16 -12 -17 4 -4 16 13 21 21 13 21 -2 0 -10 -8 -17
-17z"/>
<path d="M886 3229 c16 -20 31 -34 33 -32 3 2 -10 18 -29 36 l-34 32 30 -36z"/>
<path d="M8690 3169 c0 -5 5 -7 10 -4 6 3 10 8 10 11 0 2 -4 4 -10 4 -5 0 -10
-5 -10 -11z"/>
<path d="M940 3167 c0 -2 15 -16 33 -33 l32 -29 -29 33 c-28 30 -36 37 -36 29z"/>
<path d="M1020 3045 c13 -14 26 -25 28 -25 3 0 -5 11 -18 25 -13 14 -26 25
-28 25 -3 0 5 -11 18 -25z"/>
<path d="M8510 2985 c-24 -25 -42 -45 -39 -45 3 0 25 20 49 45 24 25 42 45 39
45 -3 0 -25 -20 -49 -45z"/>
<path d="M1100 2966 c0 -2 8 -10 18 -17 15 -13 16 -12 3 4 -13 16 -21 21 -21
13z"/>
<path d="M1167 2939 c12 -12 24 -21 27 -18 2 2 -8 13 -22 23 l-27 19 22 -24z"/>
<path d="M8414 2898 l-19 -23 23 19 c21 18 27 26 19 26 -2 0 -12 -10 -23 -22z"/>
<path d="M1180 2896 c0 -2 8 -10 18 -17 15 -13 16 -12 3 4 -13 16 -21 21 -21
13z"/>
<path d="M1220 2866 c0 -2 8 -10 18 -17 15 -13 16 -12 3 4 -13 16 -21 21 -21
13z"/>
<path d="M8349 2843 c-13 -16 -12 -17 4 -4 16 13 21 21 13 21 -2 0 -10 -8 -17
-17z"/>
<path d="M8219 2778 c-5 -18 -6 -38 -1 -34 7 8 12 36 6 36 -2 0 -4 -1 -5 -2z"/>
<path d="M8558 2763 c7 -3 16 -2 19 1 4 3 -2 6 -13 5 -11 0 -14 -3 -6 -6z"/>
<path d="M8145 2720 c-3 -6 1 -7 9 -4 18 7 21 14 7 14 -6 0 -13 -4 -16 -10z"/>
<path d="M1140 2586 c0 -2 8 -10 18 -17 15 -13 16 -12 3 4 -13 16 -21 21 -21
13z"/>
<path d="M8439 2573 c-13 -16 -12 -17 4 -4 16 13 21 21 13 21 -2 0 -10 -8 -17
-17z"/>
<path d="M1200 2525 c13 -14 26 -25 28 -25 3 0 -5 11 -18 25 -13 14 -26 25
-28 25 -3 0 5 -11 18 -25z"/>
<path d="M1320 2416 c0 -2 8 -10 18 -17 15 -13 16 -12 3 4 -13 16 -21 21 -21
13z"/>
<path d="M8186 2345 c-51 -46 -40 -45 14 0 23 19 38 35 33 35 -4 -1 -26 -16
-47 -35z"/>
<path d="M1810 2116 c0 -2 7 -7 16 -10 8 -3 12 -2 9 4 -6 10 -25 14 -25 6z"/>
<path d="M1460 1405 c-128 -33 -173 -46 -390 -110 -69 -20 -135 -40 -148 -44
-21 -6 -12 -18 110 -144 l133 -138 125 34 c69 19 180 47 248 62 139 32 132 23
107 140 -9 39 -23 107 -32 153 -9 45 -19 82 -22 81 -4 0 -62 -16 -131 -34z"/>
<path d="M7972 1282 c-17 -86 -32 -164 -32 -173 0 -12 28 -22 118 -42 110 -26
298 -74 351 -92 22 -7 38 7 159 131 l135 138 -109 32 c-60 17 -163 48 -229 67
-66 20 -167 47 -225 62 -58 14 -112 28 -120 30 -12 4 -22 -26 -48 -153z"/>
</g>
</svg>
