<?xml version="1.0" standalone="no"?>
<!DOCTYPE svg PUBLIC "-//W3C//DTD SVG 20010904//EN"
 "http://www.w3.org/TR/2001/REC-SVG-20010904/DTD/svg10.dtd">
<svg version="1.0" xmlns="http://www.w3.org/2000/svg"
 width="1000.000000pt" height="535.000000pt" viewBox="0 0 1000.000000 535.000000"
 preserveAspectRatio="xMidYMid meet">

<g transform="translate(0.000000,535.000000) scale(0.100000,-0.100000)"
fill="#000000" stroke="none">
<path d="M8820 5283 c25 -2 49 -8 55 -14 7 -7 -211 -16 -310 -12 -35 2 -167
-17 -240 -33 -182 -42 -360 -129 -493 -242 -40 -34 -50 -48 -40 -55 10 -6 8
-7 -4 -3 -19 6 -112 -90 -129 -131 -5 -13 -13 -23 -19 -23 -7 0 -9 -9 -6 -22
3 -13 3 -17 0 -10 -4 8 -20 -6 -46 -38 -22 -28 -43 -49 -46 -46 -2 3 13 43 35
88 42 85 44 108 13 108 -21 0 -25 11 -36 90 -6 44 -9 50 -14 30 -6 -21 -21
157 -20 239 0 23 -1 23 -13 7 -12 -17 -47 -14 -47 5 0 5 -9 9 -20 9 -11 0 -20
5 -20 10 0 7 -43 8 -122 5 -68 -3 -231 -10 -363 -16 -311 -13 -310 -12 -346
-62 -26 -35 -34 -39 -30 -14 1 4 -9 11 -22 16 -12 5 -29 16 -36 25 -12 14 -51
16 -325 16 -383 0 -404 -5 -419 -100 -3 -19 -11 -55 -17 -80 -22 -87 -29 -156
-31 -284 l-1 -129 -20 44 c-11 24 -22 65 -25 91 -7 56 -27 91 -42 69 -7 -10
-12 -8 -25 10 -30 44 -16 2 40 -115 61 -129 68 -176 27 -182 -16 -3 -23 1 -23
13 0 9 -6 24 -14 32 -8 9 -49 90 -92 181 -42 91 -85 174 -94 185 -10 11 -32
48 -48 81 -17 34 -38 64 -46 67 -8 3 -16 16 -18 29 -2 15 -17 31 -43 45 -39
21 -48 21 -472 22 l-433 1 -14 -22 c-8 -13 -18 -48 -22 -78 -4 -30 -11 -60
-16 -67 -6 -7 -10 -43 -11 -80 0 -37 -6 -82 -13 -98 -9 -23 -10 -50 -4 -100 9
-70 6 -93 -7 -60 -6 18 -7 18 -13 -1 -4 -10 1 -50 12 -88 24 -89 18 -106 -12
-30 -37 95 -70 155 -80 149 -5 -3 -17 9 -26 27 -35 70 -185 230 -243 260 -14
7 -28 15 -31 18 -31 34 -237 130 -278 130 -13 0 -36 6 -50 14 -58 31 -368 45
-547 26 -152 -17 -155 -18 -238 -54 -21 -9 -43 -16 -50 -16 -7 0 -45 -16 -84
-35 -40 -19 -82 -35 -93 -35 -11 0 -20 -3 -20 -7 0 -5 -17 -19 -38 -33 -20
-14 -42 -29 -48 -35 -6 -5 -32 -28 -57 -49 -26 -22 -47 -45 -47 -52 0 -14 -28
-28 -52 -25 -18 2 -26 -23 -10 -32 4 -2 1 -2 -5 -1 -7 2 -13 -5 -13 -16 0 -11
-4 -20 -9 -20 -5 0 -17 -7 -25 -16 -25 -25 -18 -3 14 46 37 55 125 150 139
150 6 0 11 7 11 17 0 10 -25 -8 -70 -51 -59 -57 -74 -67 -95 -62 -20 5 -28 0
-48 -29 -42 -61 -201 -435 -190 -446 19 -19 41 2 47 46 4 24 14 49 21 55 8 7
15 23 15 35 0 31 26 53 34 28 3 -10 4 -7 2 8 -1 14 3 31 11 37 11 11 13 6 13
-22 0 -19 -5 -38 -11 -41 -6 -4 -8 -13 -5 -21 7 -18 -4 -45 -15 -38 -5 3 -10
2 -10 -3 -1 -4 -3 -17 -4 -28 -2 -11 -10 -45 -18 -75 -14 -50 -28 -125 -30
-158 0 -10 -9 -12 -31 -8 -43 9 -76 33 -76 56 0 11 -4 20 -10 20 -5 0 -10 6
-10 14 0 9 8 13 23 10 12 -2 17 -2 10 1 -8 5 -8 13 2 33 8 15 37 110 64 212
28 102 62 228 77 280 14 52 26 107 26 122 1 16 5 31 10 34 13 8 9 24 -5 18 -8
-3 -14 1 -14 9 0 9 8 13 21 10 12 -3 17 -1 11 4 -5 4 -11 15 -13 23 -2 8 -10
19 -18 23 -8 4 -14 16 -14 27 0 13 -5 17 -20 13 -11 -3 -20 -1 -20 4 0 6 -28
16 -63 23 -34 6 -74 16 -90 20 -15 5 -85 14 -155 21 -70 6 -129 14 -132 19
-15 22 -440 30 -551 9 -30 -5 -94 -14 -144 -20 -51 -6 -97 -16 -106 -25 -8 -7
-22 -14 -31 -14 -8 0 -44 -16 -79 -35 -35 -19 -78 -41 -94 -48 -44 -20 -177
-157 -229 -235 -25 -37 -51 -86 -58 -110 -7 -23 -20 -45 -29 -47 -38 -12 -50
-304 -19 -430 5 -22 13 -62 16 -90 10 -90 62 -179 148 -256 37 -33 39 -39 29
-61 -7 -16 -8 -30 -1 -41 10 -18 -5 -79 -125 -512 l-64 -230 26 -7 c14 -4 69
-14 123 -23 79 -14 96 -19 94 -33 -3 -21 22 -41 50 -42 40 0 32 -13 -39 -61
-87 -58 -141 -104 -112 -94 11 3 0 -11 -25 -32 -64 -55 -97 -90 -148 -158 -56
-77 -84 -131 -112 -225 -13 -41 -32 -97 -43 -125 -36 -92 -11 -277 58 -420 77
-158 207 -289 368 -369 157 -77 180 -81 587 -81 363 0 411 4 455 41 20 15 20
15 -2 11 -37 -8 -26 8 17 28 46 21 112 88 137 140 9 19 20 35 24 35 4 0 11
-20 15 -45 5 -38 10 -45 29 -45 12 0 33 -8 46 -19 39 -30 170 -96 228 -114 94
-30 241 -40 491 -34 221 5 240 7 320 33 103 33 174 74 147 83 -14 5 -3 17 52
55 71 48 176 152 221 219 14 20 29 37 33 37 4 0 5 -22 1 -50 -5 -41 -4 -50 9
-50 9 0 17 7 19 17 2 11 15 -2 39 -38 45 -67 119 -143 179 -182 41 -27 35 -32
-14 -11 -42 17 -3 -17 59 -52 102 -56 165 -63 578 -64 357 0 476 8 527 36 l25
13 -25 1 c-22 0 -19 4 20 26 60 34 96 68 137 132 l34 53 42 -35 c23 -19 67
-51 97 -71 31 -21 44 -34 30 -30 -14 4 -32 10 -40 12 -9 3 -7 -2 5 -11 11 -8
25 -20 31 -25 20 -17 97 -48 172 -71 71 -20 88 -21 405 -18 316 4 335 5 392
27 74 28 185 89 185 101 0 6 7 10 15 10 8 0 15 4 15 9 0 5 -9 7 -20 4 -11 -3
-20 -9 -20 -14 0 -5 -4 -9 -10 -9 -20 0 -9 16 22 35 18 10 72 57 120 103 56
54 89 80 92 71 58 -185 96 -240 198 -284 19 -8 26 -14 16 -15 -26 0 -22 -15 7
-28 35 -16 128 -15 169 2 40 17 61 42 28 34 -32 -9 -28 -4 27 31 51 33 90 81
114 141 9 22 17 91 20 185 3 83 11 163 16 178 6 16 11 38 11 49 0 12 7 30 16
39 15 17 15 24 -10 91 -26 70 -26 72 -5 53 12 -11 153 -164 314 -340 305 -335
368 -398 404 -410 12 -3 19 -10 16 -15 -3 -5 -13 -6 -23 -3 -15 5 -15 4 -2 -9
20 -21 75 -38 119 -38 69 0 186 49 120 50 -22 1 -20 3 12 20 35 18 139 125
139 142 0 19 19 4 55 -44 22 -28 66 -69 99 -90 33 -21 52 -38 43 -38 -29 0
-18 -16 21 -30 28 -10 136 -15 451 -17 365 -4 423 -2 485 13 119 28 210 83
296 178 59 65 56 74 -5 13 -32 -31 -60 -55 -63 -52 -3 3 15 27 40 53 82 84
128 175 148 290 l8 47 2 -40 c2 -39 3 -39 10 -10 14 53 12 118 -3 112 -10 -4
-17 12 -25 55 -15 83 -59 171 -122 246 -29 34 -48 61 -42 60 10 -3 12 1 12 28
0 12 -7 14 -32 9 -32 -7 -32 -7 25 56 39 43 62 79 74 115 9 29 20 51 24 49 3
-3 9 4 12 15 3 12 0 20 -8 20 -7 0 -15 19 -18 45 -8 52 -28 95 -68 144 -15 19
-26 38 -24 42 7 10 -53 59 -73 59 -31 0 -107 31 -125 51 -16 17 -27 18 -120
13 -56 -4 -100 -4 -96 -1 3 4 68 22 144 40 77 19 141 39 143 45 2 6 -17 73
-42 149 -24 76 -96 298 -160 494 l-116 356 30 94 c33 107 106 365 145 514 14
55 40 151 56 213 30 115 30 132 -5 161 -8 7 -12 19 -9 27 3 8 -2 23 -11 33
-33 36 -131 88 -178 95 -55 8 -64 25 -15 27 56 2 89 -1 187 -18 122 -20 122
-20 127 -8 8 23 -273 61 -497 68 -85 2 -135 2 -110 0z m243 -40 c-7 -2 -21 -2
-30 0 -10 3 -4 5 12 5 17 0 24 -2 18 -5z m-2593 -1118 l0 -1045 -439 0 c-339
0 -441 3 -448 13 -6 6 -124 237 -263 512 -139 275 -257 504 -261 510 -6 5 -9
-126 -9 -320 1 -326 2 -330 20 -307 14 17 19 38 19 76 -1 45 21 116 35 116 3
0 13 3 23 7 10 3 15 3 11 -1 -13 -15 32 -83 78 -116 34 -26 44 -39 40 -54 -4
-14 5 -30 31 -53 20 -18 36 -41 37 -51 2 -24 28 -62 43 -62 7 0 13 -11 13 -24
0 -12 11 -35 25 -50 13 -14 27 -41 31 -60 3 -19 12 -37 19 -39 6 -3 15 -24 18
-47 3 -23 13 -47 23 -54 12 -9 18 -29 20 -64 3 -63 5 -67 57 -93 23 -12 53
-32 66 -45 l24 -24 -24 1 c-13 0 -33 4 -44 8 -14 6 -28 2 -48 -15 -16 -13 -34
-24 -42 -24 -18 0 -39 -27 -26 -34 5 -3 102 -8 215 -11 114 -2 225 -9 249 -15
52 -14 99 -31 94 -36 -2 -3 -24 4 -48 13 -39 16 -78 18 -330 17 -297 -2 -362
-9 -477 -52 -64 -25 -195 -114 -225 -154 -19 -25 -67 -114 -67 -123 0 -1 7 -2
15 -2 8 0 15 4 15 9 0 12 184 203 193 200 4 -1 6 4 5 10 -2 7 5 12 14 12 10
-1 15 3 11 9 -4 6 0 8 11 4 11 -5 15 -3 10 5 -5 8 -2 9 10 5 9 -4 15 -3 12 2
-6 9 26 18 140 40 28 6 160 12 295 14 134 2 177 2 96 0 -192 -5 -188 -23 5
-23 132 0 218 -12 218 -32 0 -4 -136 -8 -302 -8 -327 0 -362 -4 -463 -55 -73
-37 -166 -133 -203 -208 -17 -34 -38 -93 -48 -132 -9 -38 -23 -75 -30 -81 -8
-6 -14 -18 -14 -27 0 -37 -18 -23 -25 18 -9 61 -25 47 -25 -21 0 -59 29 -184
42 -184 4 0 8 17 8 38 l1 37 20 -37 c11 -21 25 -38 32 -38 6 0 32 -29 56 -65
56 -84 119 -139 204 -181 101 -49 170 -56 470 -52 l264 3 95 47 c74 37 108 61
151 108 98 105 143 231 135 369 -6 90 -34 167 -88 248 -43 62 -49 78 -25 69
25 -9 17 6 -27 53 -43 43 -39 46 15 9 15 -11 27 -17 27 -13 0 19 -58 77 -105
106 -61 37 -68 51 -9 19 106 -59 202 -160 243 -255 13 -30 13 -30 -8 -11 -26
24 -26 17 -1 -32 26 -50 43 -183 38 -291 -4 -69 -13 -106 -44 -186 -34 -90
-46 -107 -109 -171 -78 -78 -157 -123 -266 -149 -93 -22 -599 -22 -684 0 -211
55 -377 218 -430 423 -35 138 -19 305 41 424 34 68 31 93 -6 48 -17 -19 -30
-39 -30 -46 0 -6 -7 -18 -17 -25 -9 -8 -22 -27 -29 -44 -9 -20 -13 -24 -14
-12 0 26 -20 10 -20 -16 0 -12 -4 -28 -9 -36 -7 -11 -12 -6 -19 20 l-9 34 -6
-32 c-4 -18 -10 -46 -13 -63 -3 -16 -10 -30 -15 -30 -9 0 -26 57 -21 72 1 5
-2 8 -7 8 -5 0 -12 -10 -15 -22 l-7 -23 -11 25 c-10 24 -11 22 -29 -33 -24
-79 -31 -82 -24 -11 5 49 4 55 -6 34 -6 -14 -17 -45 -25 -70 l-13 -45 5 60 4
60 -20 -45 -20 -45 6 57 c3 32 3 58 1 58 -2 0 -14 -27 -26 -61 -13 -33 -24
-59 -26 -57 -2 2 8 46 21 98 13 52 24 96 24 98 0 1 -4 2 -10 2 -5 0 -18 -17
-29 -37 -18 -33 -20 -35 -21 -14 0 13 5 41 12 63 10 33 9 41 -3 49 -10 6 -21
0 -40 -21 -29 -32 -49 -25 -49 17 l0 24 -27 -26 c-42 -38 -53 -32 -33 19 5 14
6 35 2 47 -8 20 -12 17 -52 -32 -24 -30 -40 -46 -37 -37 4 10 10 26 14 35 3
10 -10 0 -30 -22 -20 -22 -36 -43 -37 -47 0 -5 -5 -8 -11 -8 -5 0 11 30 37 68
37 51 41 61 20 42 l-29 -25 13 25 c12 24 11 24 -21 -5 -30 -28 -32 -28 -17 -5
8 14 17 44 20 67 l6 41 -35 -5 c-23 -4 -38 -2 -43 7 -6 9 -13 9 -28 1 -31 -16
-51 -13 -28 4 11 8 17 18 13 21 -8 8 -60 -12 -109 -43 -44 -27 -56 -29 -37 -7
12 15 11 16 -6 11 -93 -28 -108 -18 -52 34 l42 41 -35 15 c-19 8 -47 13 -62
10 -15 -2 -25 0 -22 5 13 21 -8 48 -37 48 -30 0 -59 19 -59 39 0 6 5 11 12 11
6 0 8 3 5 7 -4 3 1 15 10 26 10 10 16 22 13 26 -2 3 11 14 30 24 l35 18 -35
-4 c-34 -4 -34 -4 -12 11 35 23 27 35 -18 28 -35 -5 -40 -4 -40 13 0 18 44 40
112 56 14 4 29 14 32 23 4 10 13 28 21 42 13 22 13 25 0 28 -20 4 -19 22 0 22
8 0 15 4 15 9 0 5 14 12 30 16 20 4 30 13 30 25 0 10 9 22 20 25 12 4 19 14
18 23 -2 9 7 21 19 27 36 18 63 47 63 65 0 10 13 23 29 30 29 12 45 39 41 73
-1 9 4 17 10 17 23 0 60 49 60 79 0 20 7 34 21 41 11 7 18 14 15 17 -3 4 4 11
17 17 12 7 22 17 22 24 0 7 2 12 5 13 12 2 60 -25 61 -35 1 -6 3 -22 5 -36 4
-36 28 -100 36 -100 5 0 8 380 8 845 l0 845 436 -2 436 -3 234 -460 c129 -253
252 -494 274 -535 l39 -75 1 543 0 542 330 0 330 0 0 -1045z m-3014 1020 c411
-71 695 -327 802 -724 23 -86 26 -115 26 -276 1 -157 -2 -192 -23 -275 -106
-425 -427 -707 -883 -774 -131 -20 -226 -20 -348 -1 -504 77 -835 408 -891
889 -22 185 16 420 95 591 137 297 420 506 771 570 99 19 343 18 451 0z m3953
-1025 l0 -1040 -384 0 -385 0 0 1040 0 1040 384 0 385 0 0 -1040z m-5877 1015
c215 -23 476 -70 495 -89 6 -6 -114 -445 -127 -465 -3 -4 -54 -2 -115 6 -151
20 -514 23 -578 4 -57 -16 -87 -50 -87 -98 0 -78 45 -103 230 -128 383 -51
507 -92 595 -199 155 -189 166 -547 25 -763 -92 -139 -251 -249 -423 -293
-193 -48 -544 -51 -907 -5 -113 14 -210 27 -216 29 -8 3 12 88 57 251 37 136
69 248 71 250 2 1 59 -3 128 -11 231 -24 491 -14 562 22 70 36 89 114 40 164
-32 32 -37 33 -250 55 -191 21 -341 54 -422 95 -168 85 -250 252 -250 509 0
267 111 461 325 569 188 94 518 132 847 97z m7397 5 c212 -11 341 -27 341 -44
0 -9 -191 -683 -206 -725 -3 -9 -22 5 -57 41 -160 165 -380 133 -602 -87 -132
-131 -193 -262 -182 -387 17 -188 247 -316 448 -249 86 28 157 77 258 178 46
46 85 82 86 81 2 -2 30 -88 63 -193 33 -104 81 -255 107 -335 84 -261 84 -261
72 -265 -7 -1 -120 -20 -252 -41 -220 -36 -256 -39 -435 -38 -181 0 -202 2
-295 28 -194 53 -353 144 -477 273 -181 188 -269 418 -268 701 0 224 47 394
156 567 75 120 141 194 243 271 184 139 391 210 646 221 77 3 142 7 144 9 5 5
-11 5 210 -6z m-6699 -415 c0 -8 -6 -15 -14 -15 -8 0 -17 -6 -20 -12 -3 -10
-1 25 3 40 3 10 31 -1 31 -13z m-73 -87 c-3 -8 -6 -5 -6 6 -1 11 2 17 5 13 3
-3 4 -12 1 -19z m3556 -143 c-3 -8 -9 -15 -14 -15 -10 0 -12 24 -3 33 11 11
24 -3 17 -18z m-1388 -825 c3 -5 2 -10 -4 -10 -5 0 -13 5 -16 10 -3 6 -2 10 4
10 5 0 13 -4 16 -10z m-2097 -472 c-23 -6 -51 -6 -80 0 -40 9 -38 10 37 10 70
0 76 -1 43 -10z m1448 -423 c14 -9 34 -30 44 -48 19 -30 20 -53 20 -415 l0
-384 34 -34 34 -34 426 0 c463 0 461 0 505 -56 47 -59 35 -145 -27 -192 l-36
-27 -345 0 c-503 0 -585 4 -645 35 -113 57 -194 162 -216 279 -11 59 -3 171
11 149 6 -8 9 -1 9 22 1 30 2 33 13 18 19 -24 21 291 3 347 -10 29 -11 65 -5
134 4 52 5 99 2 104 -13 22 -23 -25 -24 -123 -1 -126 -14 -90 -18 50 -2 85 0
99 21 129 46 68 130 88 194 46z m4017 -10 c147 -38 258 -141 306 -283 56 -164
3 -358 -126 -467 -18 -15 -33 -30 -33 -34 0 -4 38 -48 84 -98 50 -54 89 -106
96 -128 24 -74 -25 -154 -104 -169 -70 -13 -98 10 -374 309 l-259 280 176 5
c163 5 179 7 214 29 44 27 77 85 77 137 0 55 -41 118 -93 143 -41 20 -59 21
-371 21 -353 0 -380 -4 -391 -53 -3 -12 -6 -193 -7 -402 -3 -422 -2 -413 -71
-455 -66 -40 -153 -13 -190 60 -16 32 -17 69 -15 445 l3 410 28 57 c49 100
138 174 234 197 21 5 200 9 398 10 290 1 372 -2 418 -14z m1761 -16 c81 -71
61 -191 -37 -228 -18 -7 -170 -11 -432 -11 -239 0 -414 -4 -429 -10 -32 -12
-61 -69 -52 -103 3 -13 14 -35 25 -48 l19 -24 379 -5 378 -5 63 -29 c81 -38
162 -123 192 -203 18 -48 21 -73 18 -148 -3 -79 -8 -98 -38 -153 -55 -104
-148 -171 -266 -193 -31 -6 -221 -9 -461 -7 -404 3 -408 3 -444 26 -68 42 -86
135 -37 197 42 54 53 55 500 55 457 0 446 -1 468 64 12 39 3 71 -30 101 -21
19 -40 20 -399 25 l-376 5 -57 28 c-302 148 -277 570 40 683 28 10 143 13 489
14 l452 0 35 -31z m-6589 -7 c181 -63 312 -196 376 -382 30 -89 31 -257 2
-347 -62 -190 -204 -335 -385 -394 -71 -23 -82 -24 -393 -24 l-320 0 -75 28
c-94 34 -148 70 -227 149 -68 67 -121 158 -149 253 -23 81 -23 231 0 310 60
202 215 360 411 416 51 15 107 18 370 18 l310 1 80 -28z m-1355 -37 c5 -14 20
-27 35 -31 25 -6 35 -37 15 -49 -6 -4 -1 -14 12 -25 l22 -18 -36 -36 c-29 -29
-43 -36 -74 -35 -31 0 -35 2 -19 9 13 6 -18 9 -87 9 -60 1 -108 -3 -110 -9 -2
-5 -103 -12 -242 -16 -281 -7 -319 -16 -396 -93 -71 -71 -94 -129 -95 -231 0
-101 20 -153 87 -226 32 -36 36 -44 17 -32 -26 16 -27 16 -22 -2 9 -34 98
-108 144 -120 24 -6 49 -12 54 -14 6 -2 -17 -3 -50 -4 -78 -1 -152 34 -223
105 -199 199 -141 539 112 663 86 42 157 49 506 46 176 -1 310 2 318 7 32 24
2 86 -44 88 -20 1 -23 3 -9 6 11 2 30 6 43 9 13 2 20 9 17 14 -3 6 -1 10 5 10
6 0 15 -11 20 -25z m-323 -11 c-3 -3 -12 -4 -19 -1 -8 3 -5 6 6 6 11 1 17 -2
13 -5z m-632 -106 c-71 -56 -122 -117 -160 -189 -20 -39 -38 -69 -40 -67 -10
9 30 137 50 164 20 26 167 125 185 124 3 -1 -13 -15 -35 -32z m5424 -15 c92
-38 159 -88 200 -153 42 -65 59 -124 41 -145 -8 -10 -6 -25 11 -61 60 -134
-49 -332 -231 -418 l-65 -31 -300 0 c-222 0 -308 3 -329 13 -16 7 -26 16 -22
20 4 4 148 9 319 12 290 5 316 7 366 27 91 37 128 68 161 133 17 33 27 60 23
60 -4 0 -27 -19 -52 -42 -42 -41 -43 -42 -18 -8 49 67 67 119 67 201 0 65 -4
85 -31 137 -37 75 -102 134 -177 162 -52 20 -72 21 -326 18 l-271 -3 -57 -28
c-67 -33 -121 -90 -155 -164 -22 -48 -25 -65 -21 -137 6 -95 25 -143 82 -203
54 -57 36 -55 -26 3 -27 25 -51 44 -53 43 -1 -2 1 -26 5 -54 4 -27 6 -52 4
-54 -9 -10 -47 37 -75 94 -41 83 -56 186 -39 266 24 110 114 231 213 284 92
51 120 54 422 52 262 -2 283 -4 334 -24z m-2502 -180 c-3 -10 -5 -4 -5 12 0
17 2 24 5 18 2 -7 2 -21 0 -30z m2518 -499 c-56 -45 -81 -49 -318 -49 -125 0
-246 2 -270 5 -23 3 82 7 233 10 256 5 278 7 320 27 54 26 61 27 35 7z m-4465
-94 c0 -5 -4 -10 -10 -10 -5 0 -10 5 -10 10 0 6 5 10 10 10 6 0 10 -4 10 -10z
m-195 -10 c12 -5 -78 -8 -220 -7 -167 0 -211 3 -145 7 147 10 343 10 365 0z
m180 -15 c11 -13 27 -25 35 -27 8 -2 23 -13 33 -25 17 -21 17 -25 2 -57 -9
-19 -26 -41 -38 -49 -28 -18 -67 -28 -67 -17 0 5 10 12 23 16 21 7 20 8 -13
22 -28 12 -98 16 -358 18 -308 3 -408 11 -442 35 -12 9 -11 9 5 2 33 -13 764
-16 781 -2 16 13 19 55 4 64 -14 9 -12 45 2 45 7 0 21 -11 33 -25z"/>
<path d="M4432 3058 c8 -13 25 -27 37 -33 11 -5 24 -18 27 -27 3 -10 10 -18
15 -18 5 0 9 -6 9 -14 0 -14 62 -26 115 -22 17 2 72 6 124 11 52 4 106 11 121
15 24 7 150 96 150 106 0 2 -138 4 -306 4 l-306 0 14 -22z"/>
<path d="M6174 1738 l-29 -31 32 22 c35 23 50 41 35 41 -4 0 -21 -14 -38 -32z"/>
<path d="M5195 1664 c21 -16 57 -27 145 -43 70 -13 532 -14 600 -1 53 10 146
47 139 55 -3 2 -34 -3 -69 -11 -48 -12 -143 -17 -361 -21 -279 -4 -301 -3
-371 16 -89 25 -111 27 -83 5z"/>
<path d="M3195 4505 c-171 -71 -341 -243 -396 -399 -26 -77 -27 -170 -1 -230
27 -59 92 -122 161 -155 49 -23 68 -26 156 -25 80 0 109 4 148 22 143 64 284
198 350 331 29 60 32 74 32 161 0 83 -4 101 -27 145 -61 116 -145 168 -278
173 -72 2 -94 -1 -145 -23z m122 -282 c-3 -5 16 -7 41 -5 66 4 149 -39 179
-93 21 -38 28 -105 10 -105 -4 0 -7 -8 -5 -17 2 -13 -5 -19 -25 -21 -16 -2
-25 -8 -21 -14 4 -6 -1 -8 -15 -3 -15 4 -21 3 -19 -7 3 -14 -51 -15 -61 -1
-15 20 -64 34 -171 48 -171 23 -210 31 -221 43 -5 7 -6 10 -3 7 11 -8 58 22
92 59 19 20 38 36 44 36 6 0 4 7 -3 17 -13 15 -11 16 14 9 16 -4 26 -3 23 2
-8 13 40 35 63 29 22 -6 29 8 9 16 -7 3 6 6 30 6 24 1 41 -2 39 -6z m-227
-369 l25 -15 -25 7 c-14 3 -32 10 -40 15 -13 7 -13 8 0 8 8 0 26 -6 40 -15z
m61 -2 c-7 -2 -18 1 -23 6 -8 8 -4 9 13 5 13 -4 18 -8 10 -11z m-41 -32 c98
-36 123 -39 55 -5 -27 13 -41 24 -30 23 11 -2 25 1 31 4 12 8 103 -21 122 -40
11 -10 8 -13 -17 -18 -17 -4 -28 -10 -25 -15 7 -12 -209 61 -224 76 -10 10 6
5 88 -25z m0 -26 c39 -15 69 -28 67 -31 -2 -2 -40 10 -83 26 -43 17 -74 30
-67 30 6 1 44 -11 83 -25z"/>
<path d="M3258 3793 c7 -3 16 -2 19 1 4 3 -2 6 -13 5 -11 0 -14 -3 -6 -6z"/>
<path d="M382 4345 c0 -16 2 -22 5 -12 2 9 2 23 0 30 -3 6 -5 -1 -5 -18z"/>
<path d="M3532 2747 c-32 -34 -28 -47 14 -40 31 5 36 4 32 -13 -2 -10 -14 -24
-28 -31 -14 -7 -18 -13 -10 -13 12 0 14 -10 12 -45 -2 -25 -8 -45 -13 -45 -5
0 -9 -109 -8 -255 0 -212 3 -255 15 -255 20 0 27 42 15 86 -14 50 -5 83 20 77
16 -4 19 0 19 26 0 21 5 31 15 31 11 0 15 12 15 50 0 36 -4 52 -15 56 -8 4
-15 11 -15 16 0 6 6 8 13 5 10 -4 14 6 15 38 0 36 -3 42 -18 38 -25 -7 -37 17
-16 33 16 11 16 15 2 43 -9 17 -19 50 -22 74 -6 40 -4 45 17 50 22 6 22 7 5
26 -15 17 -16 23 -6 36 9 11 9 15 1 15 -7 0 -9 5 -6 10 13 20 -32 9 -53 -13z"/>
<path d="M3532 1864 c-10 -12 -10 -14 2 -14 17 0 30 16 19 23 -5 3 -14 -1 -21
-9z"/>
<path d="M4664 1824 c-6 -2 -9 -17 -6 -33 3 -22 -1 -31 -15 -35 -24 -8 -25
-53 -1 -60 21 -5 32 9 24 31 -4 9 1 24 10 34 14 15 14 21 4 34 -10 13 -9 15 8
15 14 0 20 -5 16 -14 -3 -8 -1 -17 5 -21 7 -3 11 2 11 14 0 11 -9 25 -19 31
-21 11 -21 11 -37 4z"/>
<path d="M4258 1738 c7 -7 12 -20 12 -29 0 -21 20 -29 76 -29 46 0 54 9 29 30
-9 7 -14 19 -11 27 4 10 -9 13 -56 13 -48 0 -59 -3 -50 -12z"/>
<path d="M4013 1623 c9 -2 23 -2 30 0 6 3 -1 5 -18 5 -16 0 -22 -2 -12 -5z"/>
<path d="M4190 1620 c0 -10 199 -4 209 6 2 2 -44 4 -102 4 -67 0 -107 -4 -107
-10z"/>
<path d="M6909 2756 c-47 -12 -144 -71 -169 -102 -16 -18 54 25 80 50 37 35
72 40 315 40 138 1 243 -3 247 -8 4 -6 13 -4 23 4 11 9 12 15 5 20 -20 13
-452 9 -501 -4z"/>
<path d="M7605 2751 c-3 -5 4 -13 16 -16 11 -4 18 -9 15 -12 -10 -10 15 -32
28 -27 8 3 16 -2 19 -10 4 -9 13 -16 20 -16 24 0 67 -58 69 -94 2 -20 7 -32
15 -29 6 2 14 -8 17 -24 4 -16 17 -41 29 -55 12 -15 33 -41 47 -59 53 -69 51
-68 44 -14 -7 50 -30 107 -65 157 -24 33 -24 37 3 30 14 -3 19 -2 14 6 -4 7
-5 12 -2 12 6 0 66 -88 66 -97 0 -3 7 -11 15 -17 9 -6 22 -29 30 -51 l14 -40
1 33 c1 109 -188 306 -305 316 -20 2 -38 6 -42 10 -10 9 -41 7 -48 -3z"/>
<path d="M6993 2723 c15 -2 37 -2 50 0 12 2 0 4 -28 4 -27 0 -38 -2 -22 -4z"/>
<path d="M7133 2723 c37 -2 97 -2 135 0 37 2 6 3 -68 3 -74 0 -105 -1 -67 -3z"/>
<path d="M7105 2670 c44 -11 98 -11 115 0 10 7 -10 9 -65 9 -58 -1 -72 -3 -50
-9z"/>
<path d="M6801 2610 c-27 -26 -31 -33 -20 -46 14 -17 17 -14 48 39 27 45 17
48 -28 7z"/>
<path d="M6746 2533 c-7 -16 -17 -44 -20 -63 -6 -30 -5 -32 5 -15 7 11 19 26
26 33 12 12 19 72 8 72 -2 0 -11 -12 -19 -27z"/>
<path d="M6723 2265 c0 -38 2 -53 4 -32 2 20 2 52 0 70 -2 17 -4 1 -4 -38z"/>
<path d="M6646 2148 c9 -59 14 -60 14 -5 0 26 -5 47 -10 47 -6 0 -8 -16 -4
-42z"/>
<path d="M6716 1793 c-11 -71 2 -113 35 -113 29 0 32 19 12 85 -22 70 -39 80
-47 28z"/>
<path d="M7822 1790 l-23 -19 42 -46 c45 -49 72 -56 89 -25 9 17 4 27 -31 65
-23 25 -44 45 -48 45 -3 -1 -16 -9 -29 -20z"/>
<path d="M7950 1795 c7 -9 15 -13 17 -11 7 7 -7 26 -19 26 -6 0 -6 -6 2 -15z"/>
<path d="M7991 1745 c1 -19 18 -51 18 -35 0 8 -4 22 -9 30 -5 8 -9 11 -9 5z"/>
<path d="M7946 1645 c-11 -8 -30 -15 -42 -15 -13 0 -26 -4 -29 -10 -8 -14 38
-13 70 2 14 6 25 17 25 25 0 16 0 16 -24 -2z"/>
<path d="M8347 2456 c-4 -10 -5 -21 -2 -24 9 -9 17 6 13 25 -3 17 -4 17 -11
-1z"/>
<path d="M2267 2744 c-13 -13 -7 -24 14 -24 11 0 19 5 17 12 -5 14 -22 21 -31
12z"/>
<path d="M2108 2713 c7 -3 16 -2 19 1 4 3 -2 6 -13 5 -11 0 -14 -3 -6 -6z"/>
<path d="M2053 2700 c-34 -14 -28 -21 7 -9 17 6 30 13 30 15 0 6 -12 4 -37 -6z"/>
<path d="M2087 2685 c-41 -14 -53 -22 -46 -30 7 -6 99 28 99 37 0 11 -8 10
-53 -7z"/>
<path d="M2430 2650 c6 -11 15 -20 20 -20 5 0 14 9 20 20 10 18 8 20 -20 20
-28 0 -30 -2 -20 -20z"/>
<path d="M2060 2606 c0 -29 26 -38 72 -25 24 7 50 18 58 26 12 11 3 13 -58 13
-54 0 -72 -3 -72 -14z"/>
<path d="M2154 2479 c-67 -26 -132 -83 -169 -150 -27 -49 -30 -63 -30 -144 0
-75 4 -98 25 -140 30 -61 94 -125 157 -156 47 -24 53 -24 333 -24 l285 0 57
28 c109 54 169 146 176 273 4 73 1 88 -23 143 -35 76 -104 142 -181 170 -50
19 -76 21 -317 20 -236 0 -267 -2 -313 -20z"/>
<path d="M3050 2470 c6 -11 13 -20 16 -20 2 0 0 9 -6 20 -6 11 -13 20 -16 20
-2 0 0 -9 6 -20z"/>
<path d="M3155 2466 c10 -14 19 -26 22 -26 7 0 -17 39 -28 46 -6 3 -3 -5 6
-20z"/>
<path d="M1715 2343 c-10 -29 -19 -92 -22 -156 l-6 -109 24 3 c13 2 29 0 35
-4 11 -6 74 10 74 20 0 2 -5 14 -11 25 -8 15 -8 26 2 44 9 18 10 30 1 49 -10
22 -9 25 8 25 14 0 22 11 29 38 14 50 14 52 -9 52 -10 0 -23 8 -29 17 -7 14
-13 5 -28 -45 -10 -34 -22 -60 -28 -59 -12 4 -12 56 -1 110 13 57 -18 50 -39
-10z"/>
<path d="M1830 2375 c0 -18 20 -19 44 -2 15 11 14 13 -13 15 -22 2 -31 -2 -31
-13z"/>
<path d="M3015 2370 c3 -5 10 -10 16 -10 5 0 9 5 9 10 0 6 -7 10 -16 10 -8 0
-12 -4 -9 -10z"/>
<path d="M3022 2323 c-24 -5 -24 -3 4 -103 7 -28 13 -36 13 -22 1 13 6 20 11
17 6 -4 10 17 10 54 0 34 -3 60 -7 60 -5 -1 -18 -4 -31 -6z"/>
<path d="M1710 2046 c0 -20 21 -31 30 -16 5 8 9 7 13 -4 10 -26 37 -19 37 9 0
23 -4 25 -40 25 -28 0 -40 -4 -40 -14z"/>
<path d="M1780 1976 c0 -8 5 -18 10 -21 6 -3 10 3 10 14 0 12 -4 21 -10 21 -5
0 -10 -6 -10 -14z"/>
<path d="M1817 1906 c-3 -8 1 -20 9 -26 12 -10 14 -8 14 14 0 28 -14 35 -23
12z"/>
<path d="M1866 1912 c-4 -3 -6 -27 -6 -53 0 -26 -5 -51 -10 -54 -15 -9 -2 -25
20 -25 11 0 26 -12 34 -29 15 -29 34 -41 64 -41 11 0 4 11 -21 31 -43 36 -76
89 -54 89 7 0 31 -13 53 -28 55 -40 74 -46 74 -22 0 10 -5 22 -10 25 -6 4 -9
12 -8 18 7 32 -115 111 -136 89z"/>
<path d="M2100 1720 c0 -6 7 -10 15 -10 8 0 15 2 15 4 0 2 -7 6 -15 10 -8 3
-15 1 -15 -4z"/>
<path d="M540 2003 c0 -18 47 -69 56 -60 4 4 -6 22 -24 40 -18 17 -32 26 -32
20z"/>
<path d="M6170 2236 c0 -20 5 -36 10 -36 6 0 10 13 10 29 0 17 -4 33 -10 36
-6 4 -10 -8 -10 -29z"/>
<path d="M7498 5273 c7 -3 16 -2 19 1 4 3 -2 6 -13 5 -11 0 -14 -3 -6 -6z"/>
<path d="M9560 5235 c0 -10 10 -15 30 -15 l30 0 0 -85 c0 -78 2 -85 20 -85 18
0 20 7 20 85 0 84 0 85 25 85 16 0 25 6 25 15 0 12 -15 15 -75 15 -60 0 -75
-3 -75 -15z"/>
<path d="M9752 5153 c3 -84 5 -98 21 -101 15 -3 17 5 18 65 l1 68 17 -65 c14
-52 21 -65 36 -65 16 0 23 13 36 60 l17 60 3 -60 c3 -47 8 -61 22 -63 15 -3
17 7 17 97 l0 101 -30 0 c-26 0 -30 -4 -40 -42 -21 -85 -26 -87 -41 -23 -14
57 -17 60 -47 63 l-33 3 3 -98z"/>
<path d="M5467 5040 c14 -28 28 -48 31 -46 5 5 -45 96 -53 96 -2 0 8 -23 22
-50z"/>
<path d="M2419 5003 c-13 -16 -12 -17 4 -4 16 13 21 21 13 21 -2 0 -10 -8 -17
-17z"/>
<path d="M5530 4931 c0 -6 4 -13 10 -16 6 -3 7 1 4 9 -7 18 -14 21 -14 7z"/>
<path d="M4271 4904 c0 -11 3 -14 6 -6 3 7 2 16 -1 19 -3 4 -6 -2 -5 -13z"/>
<path d="M4206 4881 c-3 -4 6 -19 19 -31 28 -26 30 -24 15 14 -10 26 -24 33
-34 17z"/>
<path d="M4273 4830 c0 -30 2 -43 4 -27 2 15 2 39 0 55 -2 15 -4 2 -4 -28z"/>
<path d="M4260 4709 c0 -5 5 -7 10 -4 6 3 10 8 10 11 0 2 -4 4 -10 4 -5 0 -10
-5 -10 -11z"/>
<path d="M1980 4365 c0 -8 5 -15 10 -15 6 0 10 7 10 15 0 8 -4 15 -10 15 -5 0
-10 -7 -10 -15z"/>
<path d="M9721 1824 c0 -11 3 -14 6 -6 3 7 2 16 -1 19 -3 4 -6 -2 -5 -13z"/>
<path d="M9711 1784 c0 -11 3 -14 6 -6 3 7 2 16 -1 19 -3 4 -6 -2 -5 -13z"/>
<path d="M6400 1665 c-12 -23 -12 -28 0 -35 26 -16 41 17 22 48 -6 9 -12 5
-22 -13z"/>
<path d="M4921 1574 c0 -11 3 -14 6 -6 3 7 2 16 -1 19 -3 4 -6 -2 -5 -13z"/>
<path d="M8147 1553 c-11 -10 -8 -43 3 -43 6 0 10 11 10 25 0 26 -2 29 -13 18z"/>
<path d="M4900 1385 c-25 -63 -72 -109 -127 -125 -38 -11 -913 -23 -3573 -50
-619 -6 -1135 -13 -1146 -15 -20 -4 -40 -32 -30 -42 2 -2 213 -6 467 -9 255
-2 986 -9 1624 -15 2269 -20 2614 -26 2672 -43 68 -21 104 -66 137 -169 10
-30 26 -15 51 48 29 72 59 100 128 120 57 16 155 18 3212 51 847 9 1542 18
1545 21 2 2 -1 12 -6 21 -13 21 -118 22 -2679 46 -940 9 -1780 18 -1865 20
-229 7 -268 24 -319 131 -40 84 -60 86 -91 10z"/>
<path d="M2006 758 c-23 -32 -23 -407 -1 -493 29 -110 120 -201 242 -241 85
-28 238 -26 315 5 116 45 203 129 228 219 13 47 13 499 0 507 -5 3 -18 -3 -30
-15 -17 -17 -33 -20 -115 -20 -72 0 -95 3 -95 13 0 7 -6 21 -13 32 -13 17 -15
17 -35 -3 -21 -21 -22 -31 -22 -215 0 -190 0 -193 -25 -230 -14 -20 -23 -42
-20 -47 3 -6 1 -10 -4 -10 -22 0 -10 -20 12 -21 18 -1 17 -2 -8 -10 -40 -12
-100 -2 -127 22 -23 20 -23 20 -1 10 29 -14 36 -14 26 2 -10 16 -12 49 -19
282 -3 110 -10 204 -15 209 -5 6 -18 1 -32 -12 -20 -19 -34 -22 -113 -22 l-90
0 -11 30 c-13 36 -26 38 -47 8z m226 -245 c3 -168 5 -192 24 -223 61 -104 220
-109 279 -9 18 30 21 57 25 224 l5 190 78 3 78 3 -3 -213 c-3 -197 -5 -216
-25 -254 -55 -104 -143 -148 -293 -149 -116 0 -180 20 -243 75 -73 64 -80 93
-85 333 l-4 207 80 0 80 0 4 -187z"/>
<path d="M2924 766 c-18 -14 -19 -33 -22 -358 -3 -337 -2 -345 18 -371 l21
-27 273 0 c332 0 309 -11 307 142 -1 56 -5 106 -10 111 -4 4 -19 -3 -32 -17
-24 -25 -26 -26 -174 -25 -82 1 -141 3 -130 6 71 15 70 14 54 24 -14 7 -15 17
-7 60 12 68 6 425 -8 439 -7 7 -17 4 -32 -10 -18 -17 -35 -20 -117 -20 -86 0
-95 2 -95 19 0 30 -23 43 -46 27z m218 -308 l3 -243 148 -3 147 -3 0 -59 0
-60 -227 0 -228 0 2 228 c1 125 2 262 2 305 l1 77 75 0 75 0 2 -242z"/>
<path d="M3427 762 c-14 -15 -17 -40 -17 -120 0 -138 4 -142 140 -142 l100 0
0 -229 c0 -280 -12 -261 162 -261 168 0 158 -17 158 265 l0 225 98 0 c90 0
100 2 120 23 19 20 22 35 22 108 0 126 -11 151 -47 109 -17 -19 -30 -20 -348
-20 l-331 0 -11 30 c-13 35 -23 37 -46 12z m703 -122 l0 -60 -120 0 -120 0 0
-245 0 -245 -80 0 -80 0 -2 243 -3 242 -117 3 -118 3 0 59 0 60 320 0 320 0 0
-60z"/>
<path d="M4287 762 c-15 -17 -17 -57 -17 -365 0 -423 -15 -387 158 -387 90 0
123 4 140 16 l22 15 0 354 c0 241 -3 356 -11 360 -6 4 -21 -2 -33 -14 -19 -18
-35 -21 -113 -21 l-91 0 -11 30 c-12 35 -21 37 -44 12z m223 -367 l0 -305 -80
0 -80 0 0 305 0 305 80 0 80 0 0 -305z"/>
<path d="M4717 762 c-15 -17 -17 -57 -17 -365 0 -423 -15 -387 160 -387 160 0
160 0 160 148 l0 107 43 -49 c37 -42 49 -49 77 -48 28 1 42 10 77 49 l42 48 1
-107 c0 -147 1 -148 158 -148 90 0 123 4 140 16 l22 15 0 354 c0 241 -3 356
-11 360 -6 4 -21 -2 -33 -14 -19 -18 -35 -21 -107 -21 l-85 0 -11 31 c-11 29
-14 30 -29 18 -37 -30 -144 -172 -144 -190 0 -11 -7 -22 -16 -26 -26 -10 -49
11 -50 44 0 19 -16 49 -44 86 -39 49 -46 54 -64 45 -12 -6 -23 -12 -25 -14 -2
-2 16 -27 39 -56 l42 -53 -53 58 -54 58 -80 -1 c-80 0 -81 0 -92 30 -13 35
-23 37 -46 12z m317 -182 c54 -66 102 -120 107 -120 5 0 52 54 106 119 l98
120 78 0 77 1 0 -305 0 -305 -80 0 -80 0 0 185 c0 170 -1 185 -17 184 -10 0
-55 -46 -102 -105 l-83 -104 -67 82 c-106 132 -106 132 -124 125 -15 -6 -17
-28 -17 -187 l0 -180 -75 0 -75 0 0 305 0 305 78 0 78 0 98 -120z m37 -7 c13
-16 12 -17 -3 -4 -10 7 -18 15 -18 17 0 8 8 3 21 -13z"/>
<path d="M5928 768 c-23 -18 -308 -664 -308 -699 0 -48 29 -59 160 -59 135 0
146 5 175 79 l19 51 102 0 101 0 13 -41 c28 -85 36 -89 174 -89 133 0 166 11
166 54 0 20 -279 669 -294 683 -3 3 -15 -2 -28 -11 -30 -21 -238 -24 -238 -3
0 7 -6 21 -13 30 -10 15 -15 16 -29 5z m305 -208 c33 -74 92 -211 132 -303
l74 -168 -81 3 -80 3 -25 63 -25 62 -156 -2 -156 -3 -25 -62 -26 -63 -78 0
c-43 0 -76 3 -74 8 3 4 58 129 122 277 65 149 124 283 132 298 l14 28 96 -3
97 -3 59 -135z"/>
<path d="M6057 558 c-60 -146 -97 -240 -97 -248 0 -6 46 -10 115 -10 63 0 115
3 115 8 0 4 -23 64 -51 135 -47 117 -69 147 -82 115z m42 -196 c-22 -8 -6 -31
29 -40 32 -9 25 -10 -53 -10 -72 0 -84 2 -62 10 15 5 28 15 28 21 3 27 5 33
19 66 l14 35 18 -40 c9 -21 13 -40 7 -42z"/>
<path d="M6437 762 c-14 -15 -17 -40 -17 -120 0 -138 4 -142 140 -142 l100 0
0 -229 c0 -280 -12 -261 162 -261 168 0 158 -17 158 265 l0 225 95 0 c88 0 98
2 120 25 23 22 25 32 25 113 0 55 -5 95 -13 106 -12 16 -14 16 -34 -4 -21 -19
-34 -20 -350 -20 l-329 0 -11 30 c-13 35 -23 37 -46 12z m693 -122 l0 -60
-115 0 -115 0 -2 -162 c-2 -90 -3 -200 -3 -246 l0 -82 -77 0 -78 0 -2 243 -3
242 -117 3 -118 3 0 59 0 60 315 0 315 0 0 -60z"/>
<path d="M7296 764 c-14 -13 -16 -61 -16 -369 l0 -354 22 -15 c19 -14 63 -16
283 -16 323 0 305 -7 305 125 0 72 -4 97 -16 109 -18 18 -9 17 -139 17 -55 0
-109 4 -120 9 -13 6 19 9 95 9 157 1 160 3 160 125 0 58 -4 96 -12 104 -8 8
-53 12 -135 12 -75 0 -123 4 -123 10 0 6 50 10 129 10 105 0 131 3 142 16 14
18 14 182 -1 198 -4 4 -17 -1 -29 -13 -20 -20 -31 -21 -260 -21 l-238 0 -6 30
c-7 34 -18 37 -41 14z m504 -109 l0 -44 -137 -3 -138 -3 -3 -72 -3 -72 133 -3
133 -3 3 -47 3 -48 -131 0 -130 0 -10 -26 c-13 -33 -13 -110 0 -135 10 -17 23
-19 150 -19 l140 0 0 -45 0 -45 -225 0 -225 0 0 305 0 305 220 0 220 0 0 -45z
m10 -175 c0 -6 -48 -9 -127 -8 l-128 2 125 6 c69 3 126 7 128 8 1 1 2 -2 2 -8z
m24 -239 c4 -5 3 -16 0 -25 -5 -14 -27 -16 -153 -14 l-146 2 129 5 c108 5 131
9 140 24 12 19 22 22 30 8z"/>
</g>
</svg>
