<?xml version="1.0" encoding="UTF-8"?>
<!-- Generator: Adobe Illustrator 16.0.3, SVG Export Plug-In . SVG Version: 6.00 Build 0)  -->
<!DOCTYPE svg PUBLIC "-//W3C//DTD SVG 1.1//EN" "http://www.w3.org/Graphics/SVG/1.1/DTD/svg11.dtd">
<svg version="1.1" id="Layer_1" xmlns="http://www.w3.org/2000/svg" xmlns:xlink="http://www.w3.org/1999/xlink" x="0px" y="0px" width="396px" height="288px" viewBox="0 0 396 288" enable-background="new 0 0 396 288" xml:space="preserve">
<g>
	<defs>
		<rect id="SVGID_1_" width="396" height="288"/>
	</defs>
	<clipPath id="SVGID_2_">
		<use xlink:href="#SVGID_1_" overflow="visible"/>
	</clipPath>
	<g clip-path="url(#SVGID_2_)">
		<path fill-rule="evenodd" clip-rule="evenodd" fill="#FFFFFF" d="M256.338,223.17c-2.593-5.672-4.51-10.819-7.24-15.491    c-1.701-2.913-1.281-4.801,0.597-7.112c13.293-16.357,19.326-35.089,17.962-56.117c-0.268-4.121-1.623-8.182-1.796-12.299    c-0.432-10.294-0.479-20.604-0.661-30.908c-0.043-2.452-0.007-4.905-0.007-7.896c-5.566,0-10.536,0.271-15.457-0.103    c-2.906-0.221-6.422-0.639-8.49-2.37c-15.716-13.154-33.591-20.012-54.126-19.574c-16.998,0.363-32.208,5.895-45.843,16.038    c-2.609,1.941-5.588,3.822-8.68,4.601c-10.74,2.704-17.796,9.256-21.899,19.322c-0.245,0.602-0.578,1.167-2.171,1.857    c-0.903-6.054-1.807-12.108-2.769-18.556c-0.953-1.549-2.834-3.655-3.648-6.114c-2.234-6.744-4.021-13.637-6.24-21.357    c12.696,3.656,24.606,7.085,36.515,10.514c0.64,0.185,1.28,0.368,1.919,0.556c11.84,3.461,20.245,0.021,26.152-10.763    c9.348-17.063,18.671-34.139,28.37-51.878c1.161,1.846,2.064,3.129,2.813,4.496c9.192,16.794,18.354,33.604,27.544,50.399    c3.438,6.281,13.855,10.609,20.644,8.605c14.025-4.139,28.046-8.291,42.959-12.701c-1.201,4.336-2.069,7.958-3.207,11.494    c-3.766,11.705-7.9,23.301-11.379,35.09c-3.394,11.501-2.124,22.845,5.777,32.041c8.838,10.287,20.964,12.153,33.836,9.813    c3.376-0.614,6.64-1.847,10.279-2.888c-1.923-6.723-3.691-12.905-5.739-20.063c20.719,6.641,40.72,13.051,60.721,19.462    c0.054,0.32,0.107,0.642,0.161,0.962c-36.508,11.614-73.016,23.229-110.138,35.039c6.302,21.919,12.526,43.564,19.026,66.172    c-8.655-2.471-16.577-4.715-24.489-6.993c-12.154-3.502-24.35-6.873-36.422-10.64c-3.492-1.09-4.894-0.184-6.509,2.856    c-7.5,14.112-15.264,28.084-22.95,42.097c-0.768,1.399-1.648,2.736-2.875,4.761c-6.79-12.378-13.249-24.144-19.697-35.914    c-2.08-3.796-4.302-7.526-6.14-11.438c-1.333-2.836-2.844-3.271-5.85-2.354c-19.421,5.916-38.915,11.595-58.386,17.347    c-0.928,0.273-1.871,0.498-3.698,0.981c6.667-22.559,13.144-44.479,19.824-67.085C78.208,175.231,41.61,163.445,3.533,151.183    c3.11-1.044,4.765-1.627,6.437-2.157c19.032-6.04,38.139-11.856,57.06-18.228c6.332-2.133,11.506,0.423,17.142,1.435    c-0.014,0.475-0.028,0.949-0.042,1.424c-4.344,0-8.704,0.224-13.028-0.068c-3.692-0.248-5.441,1.129-6.135,4.733    c-0.778,4.045-2.027,8-3.215,12.546c12.45,2.137,24.459,3.611,36.433,0.22c6.218-1.762,8.987-7.012,10.766-12.812    c0.414-1.348,0.839-2.691,2.119-3.877c-0.291,4.572-0.709,9.14-0.849,13.717c-0.557,18.312,4.787,34.832,15.799,49.39    c2.892,3.823,4.59,7.39,3.705,12.294c-0.573,3.175-0.108,6.538-0.108,10.263c5.61,0,10.577-0.235,15.509,0.076    c3.731,0.236,7.731,0.455,11.075,1.913c19.694,8.59,39.549,9.224,59.815,2.358c4.854-1.645,9.468-2.694,15.13-1.614    C238.985,224.289,247.325,223.17,256.338,223.17z"/>
		<path fill-rule="evenodd" clip-rule="evenodd" fill="#FFFFFF" d="M193.23,124.203c-0.191,1.525-0.527,3.049-0.547,4.577    c-0.069,5.327-0.292,10.673,0.056,15.979c0.272,4.154-1.406,5.243-5.188,4.949c-3.284-0.255-6.604-0.053-10.345-0.053    c0-17.796,0-35.159,0-53.248c7.092,0,14.195-0.12,21.285,0.132c1.035,0.036,2.322,1.673,2.956,2.856    c3.45,6.45,6.73,12.991,10.075,19.498c0.726,1.41,1.475,2.809,2.212,4.213c0.487-0.018,0.975-0.035,1.462-0.053    c0.382-1.509,1.061-3.012,1.094-4.528c0.13-5.992,0.207-11.993,0.003-17.979c-0.113-3.336,1.177-4.207,4.364-4.256    c11.982-0.184,11.987-0.289,11.995,11.558c0.008,12.321-0.114,24.645,0.073,36.964c0.055,3.607-0.85,5.173-4.724,4.913    c-4.476-0.3-9.026-0.44-13.472,0.031c-4.821,0.513-7.13-1.547-9.039-5.708c-3.15-6.864-6.918-13.446-10.425-20.147    C194.454,124.001,193.842,124.102,193.23,124.203z"/>
		<path fill-rule="evenodd" clip-rule="evenodd" fill="#FFFFFF" d="M251.577,220.946c-8.326-0.97-15.533-1.865-22.757-2.595    c-1.248-0.126-2.574,0.43-3.854,0.713c-17.349,3.827-33.497-7.298-36.507-25.157c-2.565-15.222,10.339-31.149,26.537-32.755    c16.962-1.681,31.701,11.109,32.578,28.37c0.1,1.963,0.177,4.254-0.691,5.883c-3.832,7.183-0.672,13.353,2.275,19.642    C249.84,216.501,250.384,218.02,251.577,220.946z M214.838,203.333c6.762-0.086,13.079-4.343,15.565-10.489    c3.445-8.517-1.266-15.03-10.298-13.847c-6.909,0.904-11.973,4.714-14.454,11.368    C202.897,197.749,207.006,203.433,214.838,203.333z"/>
		<path fill-rule="evenodd" clip-rule="evenodd" fill="#FFFFFF" d="M141.077,93.779c16.551-0.02,29.76,12.9,29.785,29.137    c0.025,16.133-13.35,29.537-29.528,29.594c-15.65,0.055-29.939-13.936-30.102-29.471C111.067,107.298,124.835,93.8,141.077,93.779    z M128.241,126.235c-0.189,5.076,2.194,8.08,7.225,9.104c8.917,1.814,18.894-5.899,19.293-14.919    c0.207-4.658-2.291-8.073-6.711-9.175C139.328,109.073,128.577,117.209,128.241,126.235z"/>
		<path fill-rule="evenodd" clip-rule="evenodd" fill="#FFFFFF" d="M133.042,164.21c5.876,0,11.156,0,17.063,0    c0,6.888,0,13.606,0,20.723c5.506,0,10.391,0,15.846,0c0-6.707,0-13.447,0-20.544c5.952,0,11.357,0,17.237,0    c0,17.223,0,34.558,0,52.239c-5.422,0-10.829,0-16.851,0c0-6.284,0-12.68,0-19.415c-5.506,0-10.411,0-15.958,0    c0,6.371,0,12.769,0,19.541c-6.037,0-11.445,0-17.337,0C133.042,199.334,133.042,181.99,133.042,164.21z"/>
		<path fill-rule="evenodd" clip-rule="evenodd" fill="#FFFFFF" d="M103.454,96.487c-0.79,3.203-1.172,6.024-2.257,8.543    c-0.448,1.041-2.368,1.936-3.68,2.026c-4.13,0.287-8.356-0.258-12.403,0.396c-1.666,0.27-2.97,2.773-4.438,4.262    c1.524,1.225,2.876,2.957,4.615,3.549c2.305,0.784,4.92,0.623,7.39,0.96c8.332,1.135,14.282,8.035,14.333,16.569    c0.05,8.274-5.618,15.509-13.907,16.128c-8.868,0.662-17.823,0.149-27.695,0.149c1.155-4.296,1.816-7.667,3.064-10.804    c0.348-0.873,2.419-1.431,3.726-1.482c3.649-0.144,7.377,0.482,10.94-0.066c1.777-0.274,3.26-2.452,4.876-3.769    c-1.386-1.354-2.544-3.295-4.206-3.938c-3.221-1.248-6.781-1.585-10.098-2.627c-7.12-2.238-11.145-7.423-11.282-14.146    c-0.142-6.97,3.396-12.052,10.576-14.639C82.698,94.106,92.596,94.801,103.454,96.487z"/>
		<path fill-rule="evenodd" clip-rule="evenodd" fill="#FFFFFF" d="M308.55,113.561c-7.727-3.333-13.987-1.093-19.512,4.017    c-4.259,3.938-5.601,9.876-3.354,13.982c2.229,4.075,7.902,5.862,13.737,3.847c3.066-1.06,5.857-2.913,9.207-4.632    c1.889,6.195,3.751,12.311,5.594,18.357c-10.213,6.153-27.777,3.614-36.781-5.123c-8.843-8.58-10.776-22.985-4.576-34.098    c6.624-11.871,21.972-16.78,40.419-12.306C311.729,102.843,310.183,108.055,308.55,113.561z"/>
		<path fill-rule="evenodd" clip-rule="evenodd" fill="#FFFFFF" d="M243.527,96.605c5.995,0,11.892,0,18.208,0    c0,17.544,0,34.93,0,52.678c-6.005,0-11.908,0-18.208,0C243.527,131.787,243.527,114.434,243.527,96.605z"/>
		<path fill-rule="evenodd" clip-rule="evenodd" fill="#FFFFFF" d="M288.56,124.147c5.074,1.65,10.149,3.3,15.769,5.127    c-4.456,3.423-8.841,5.187-13.29,2.746c-1.983-1.088-2.775-4.346-4.109-6.619C287.473,124.983,288.016,124.565,288.56,124.147z"/>
	</g>
</g>
</svg>