<?xml version="1.0" encoding="UTF-8"?>
<!-- Generator: Adobe Illustrator 21.0.2, SVG Export Plug-In . SVG Version: 6.00 Build 0)  -->
<svg version="1.1" id="Layer_1" xmlns="http://www.w3.org/2000/svg" xmlns:xlink="http://www.w3.org/1999/xlink" x="0px" y="0px" viewBox="0 0 371 270" style="enable-background:new 0 0 371 270;" xml:space="preserve">
<style type="text/css">
	.st0{fill:#385CAE;}
	.st1{fill:#FFFFFF;stroke:#385CAE;stroke-width:5;stroke-miterlimit:10;}
	.st2{fill:#FFFFFF;}
</style>
<circle class="st0" cx="186.4" cy="133.6" r="80"/>
<path class="st1" d="M253,207.9c-2.6-5.7-4.2-10.7-7-14.9c-2.4-3.6-1.6-5.9,0.7-8.8c7.8-9.8,13.8-20.6,15.5-33.1  c1.3-9.1,1.1-18.5,1-27.7c-0.2-12.9-1-25.9-1.4-38.8c-0.2-7.1,0-7.2-7-7.1c-3.5,0.1-6.9,0.9-10.4,0.6c-2.3-0.2-4.9-1-6.7-2.5  c-15.9-13.5-34.1-20.4-55-19.7c-16.6,0.5-31.5,6-44.8,16c-2.6,1.9-5.6,3.8-8.7,4.5C118.1,79,111,85.6,107,96  c-0.2,0.6-0.6,1.1-1.2,2.3c-1.7-6.6-5.7-12.4-2.6-17.3c-2.1-3.5-3.9-5.8-4.8-8.4c-2.2-6.6-4-13.3-6.2-20.9c5.8,1.7,11,3.2,16.2,4.6  c6.7,1.9,13.8,3.1,20.1,5.9c8.6,3.9,16,2.1,23.1-2.9c1.5-1.1,2.8-2.8,3.7-4.5c9.2-16.6,18.2-33.3,27.3-49.9c0.8-1.4,1.6-2.8,2.9-4.9  c4.6,8.4,8.9,16.2,13.1,24c5.7,10.4,11.3,20.7,17,31.1c3.3,6.1,14,10.5,20.7,8.5c14-4.1,28-8.3,43-12.7c-1.1,3.7-1.9,6.6-2.8,9.5  c-4,12.3-8.2,24.6-11.9,37c-3.4,11.7-2.1,23.2,5.9,32.4c8.7,10,20.6,12.1,33.4,9.6c3.4-0.7,6.7-1.8,10.5-2.9  c-1.9-6.7-3.7-13-5.8-20.2c20.8,6.7,40.8,13.1,62.4,20c-38,12.1-74.6,23.7-111.6,35.5c6.3,22,12.5,43.5,19,66  c-2.3-0.6-4.2-0.9-6-1.4c-18.4-5.3-36.8-10.5-55.1-16c-3.2-1-4.6-0.3-6.2,2.6c-8.3,15.5-16.9,31-25.7,47.1c-1-1.6-1.8-2.7-2.5-3.9  c-7.9-14.3-15.8-28.5-23.4-43c-1.7-3.3-3.3-3.6-6.6-2.6c-20.2,6.1-40.4,12.1-61.6,18.4c6.7-22.8,13.2-44.8,19.9-67.3  C74.5,159.8,38,148.1,0,135.8c6.8-2.2,12.2-4.1,17.6-5.8c15.4-4.9,30.8-9.5,46.1-14.7c6.3-2.1,11.5,0.5,17.1,1.5c0,0.5,0,1,0,1.5  c-4.3,0-8.7,0.3-13-0.1c-4-0.4-5.7,1.1-6.4,4.9c-0.7,3.9-2,7.7-3.3,12.4c4,0.6,7.7,1.5,11.4,1.6c6.6,0.2,13.3,0.2,19.9-0.2  c8.9-0.5,13.7-6,16-14.1c0.4-1.4,0.8-2.7,2.2-3.9c-0.3,3.9-0.6,7.8-0.8,11.6c-0.9,20.1,5.1,37.9,17.4,53.9c1.5,2,1.7,5.1,1.9,7.8  c0.3,3.9,0.1,7.9,0.1,12.4c5.3,0,10.4-0.2,15.5,0.1c3.9,0.2,8,0.5,11.6,2c19,8.1,38.3,8.9,57.9,2.6c2.1-0.7,4.1-1.3,6.2-1.8  c3.4-1,6.7-0.4,10.3,0.1C235.5,208.6,243.7,207.9,253,207.9z"/>
<path class="st2" d="M189.1,109c0,5.5,0,11.1,0,16.6c-0.1,10,1.3,8.6-8.8,8.7c-2.1,0-4.3,0-6.8,0c0-17.9,0-35.3,0-53.3  c7.2,0,14.3-0.1,21.4,0.1c1,0,2.3,1.7,2.9,2.9c3.5,6.6,6.9,13.3,10.3,19.9c0.7,1.3,1.6,2.6,2.4,3.9c0.5-0.1,1-0.2,1.5-0.3  c0.2-1.6,0.7-3.3,0.7-4.9c0.1-6,0.1-12,0-18c-0.1-2.8,1-3.7,3.8-3.8c12.6-0.6,12.6-0.7,12.6,11.9c0,12.3-0.1,24.6,0.1,37  c0,3.4-0.9,4.8-4.5,4.6c-4.5-0.3-9-0.4-13.5,0c-5,0.5-7.5-1.5-9.4-5.9c-2.4-5.6-5.5-11-8.4-16.4c-0.7-1.2-1.6-2.3-2.3-3.5  C190.4,108.7,189.7,108.8,189.1,109z"/>
<path class="st2" d="M247.9,205.5c-8.2-0.9-15.3-1.8-22.5-2.5c-1.4-0.1-2.9,0.5-4.3,0.8c-16.8,3.7-32.6-7.1-36-24.6  c-2.9-14.9,8.6-30.2,24.8-33.2c15.8-2.9,31.4,8.6,33.7,25.1c0.4,2.9,0.9,6.4-0.3,8.8c-3.6,7.7-0.6,14,2.7,20.6  C246.5,201.6,246.9,202.8,247.9,205.5z M211,187.9c7,0,13.6-4.5,15.9-10.8c3-8.2-1.3-14.1-10-13.6c-6.6,0.4-13.3,5.8-15.2,12  C199.7,182.6,203.6,187.9,211,187.9z"/>
<path class="st2" d="M137.6,78.4c16.5,0,29.7,13.1,29.7,29.3c-0.1,16.1-13.6,29.5-29.7,29.4c-15.8-0.1-30-14.1-30-29.6  C107.6,91.7,121.4,78.4,137.6,78.4z M141.4,95.6c-7.6,0.1-15.1,6.1-16.6,13.4c-1.2,6,1.6,10.1,7.6,11.1c7.7,1.3,16.4-4.6,18.3-12.7  C152.3,100.4,148.5,95.5,141.4,95.6z"/>
<path class="st2" d="M146.9,201.5c-6.3,0-11.6,0-17.4,0c0-17.5,0-34.9,0-52.5c5.5,0,11,0,17,0c0,6.7,0,13.5,0,20.6  c5.5,0,10.4,0,15.8,0c0-6.7,0-13.4,0-20.5c6.1,0,11.6,0,17.5,0c0,17.4,0,34.6,0,52.3c-5.7,0-11.2,0-17.2,0c0-6.4,0-12.7,0-19.3  c-5.3,0-10.2,0-15.8,0C146.9,188.1,146.9,194.5,146.9,201.5z"/>
<path class="st2" d="M99.8,81.1c-0.6,2.7-1.1,4.9-1.5,7.1c-0.5,2.7-1.8,3.9-4.8,3.6c-3.6-0.4-7.4-0.6-10.9,0c-2,0.4-4.7,2.3-5.2,4  c-0.8,3.2,2.2,3.9,4.8,4.2c2,0.2,4,0.5,5.9,0.6c8.7,0.8,15.1,7.6,15.3,16.2c0.3,8.7-5.5,15.7-14.4,16.8c-4.9,0.6-10,0.7-14.9,0.6  c-3.8-0.1-7.6-0.7-12.1-1.2c1-3.7,1.6-7.1,2.8-10.2c0.3-0.9,2.4-1.4,3.7-1.5c3.7-0.1,7.4,0.5,10.9,0c1.8-0.3,3.3-2.5,4.9-3.8  c-1.4-1.4-2.6-3.3-4.2-3.9c-3.4-1.3-7.1-1.7-10.5-2.8c-6.9-2.3-10.7-7.3-10.8-14C58.7,90,62,85.1,69,82.4  C78.8,78.6,88.8,79.3,99.8,81.1z"/>
<path class="st2" d="M309.6,82.5c-1.6,5.1-3.1,10.3-4.8,15.7c-7.8-3.4-14-1-19.5,4.1c-4.2,3.9-5.5,9.9-3.2,14  c2.2,3.9,7.6,5.7,13.3,3.8c3.2-1.1,6.2-3,9.6-4.7c1.9,6.2,3.7,12.3,5.6,18.4c-11.2,6.2-28.7,3.3-37.6-6c-8.6-9-9.8-24-2.9-34.7  C277.4,81.9,293.9,77.3,309.6,82.5z"/>
<path class="st2" d="M239.7,134c0-17.8,0-35,0-52.8c6.1,0,12,0,18.3,0c0,17.5,0,35,0,52.8C252,134,246.1,134,239.7,134z"/>
</svg>